<svg width="500" height="300" viewBox="0 0 500 300" fill="none" xmlns="http://www.w3.org/2000/svg">
<g clip-path="url(#clip0_37_8)">
<rect width="500" height="300" rx="25" fill="white"/>
<rect width="500" height="300" rx="25" fill="white"/>
<path d="M94.2124 54V28.5455H104.255C106.186 28.5455 107.83 28.9142 109.189 29.6516C110.548 30.3808 111.584 31.3958 112.297 32.6967C113.017 33.9893 113.378 35.4808 113.378 37.1712C113.378 38.8615 113.013 40.353 112.284 41.6456C111.555 42.9382 110.498 43.945 109.115 44.6658C107.739 45.3867 106.074 45.7472 104.118 45.7472H97.7173V41.4343H103.248C104.284 41.4343 105.137 41.2562 105.809 40.8999C106.488 40.5353 106.993 40.034 107.325 39.396C107.665 38.7496 107.835 38.008 107.835 37.1712C107.835 36.326 107.665 35.5885 107.325 34.9588C106.993 34.3208 106.488 33.8278 105.809 33.4798C105.129 33.1235 104.267 32.9453 103.223 32.9453H99.5941V54H94.2124ZM121.705 54.3604C120.487 54.3604 119.402 54.1491 118.449 53.7266C117.496 53.2957 116.742 52.6618 116.187 51.8249C115.64 50.9798 115.366 49.9274 115.366 48.668C115.366 47.6074 115.561 46.7166 115.951 45.9957C116.34 45.2749 116.87 44.6948 117.542 44.2557C118.213 43.8165 118.975 43.4851 119.828 43.2614C120.69 43.0376 121.593 42.8802 122.538 42.7891C123.648 42.6731 124.543 42.5653 125.223 42.4659C125.902 42.3582 126.395 42.2008 126.702 41.9936C127.008 41.7865 127.162 41.4799 127.162 41.0739V40.9993C127.162 40.2121 126.913 39.6031 126.416 39.1722C125.927 38.7414 125.231 38.5259 124.328 38.5259C123.375 38.5259 122.617 38.7372 122.053 39.1598C121.49 39.5741 121.117 40.0961 120.935 40.7259L116.038 40.3281C116.286 39.1681 116.775 38.1655 117.504 37.3203C118.233 36.4669 119.174 35.8123 120.326 35.3565C121.486 34.8925 122.828 34.6605 124.353 34.6605C125.413 34.6605 126.428 34.7848 127.398 35.0334C128.375 35.282 129.241 35.6673 129.995 36.1893C130.758 36.7113 131.358 37.3825 131.798 38.2028C132.237 39.0148 132.456 39.9884 132.456 41.1236V54H127.435V51.3526H127.286C126.979 51.9492 126.569 52.4754 126.055 52.9311C125.542 53.3786 124.924 53.7307 124.203 53.9876C123.483 54.2362 122.65 54.3604 121.705 54.3604ZM123.222 50.7063C124 50.7063 124.688 50.553 125.285 50.2464C125.881 49.9316 126.35 49.509 126.689 48.9787C127.029 48.4484 127.199 47.8477 127.199 47.1765V45.1506C127.033 45.2583 126.805 45.3577 126.515 45.4489C126.234 45.5317 125.915 45.6104 125.558 45.685C125.202 45.7513 124.846 45.8134 124.489 45.8714C124.133 45.9212 123.81 45.9667 123.52 46.0082C122.898 46.0993 122.356 46.2443 121.892 46.4432C121.428 46.642 121.067 46.9113 120.81 47.2511C120.554 47.5825 120.425 47.9968 120.425 48.494C120.425 49.2148 120.686 49.7659 121.208 50.147C121.738 50.5199 122.41 50.7063 123.222 50.7063ZM152.448 40.353L147.601 40.6513C147.518 40.237 147.34 39.8641 147.067 39.5327C146.793 39.1929 146.433 38.9237 145.985 38.7248C145.546 38.5176 145.02 38.4141 144.407 38.4141C143.586 38.4141 142.895 38.5881 142.331 38.9361C141.768 39.2758 141.486 39.7315 141.486 40.3033C141.486 40.759 141.668 41.1443 142.033 41.4592C142.397 41.774 143.023 42.0268 143.91 42.2173L147.365 42.9134C149.221 43.2945 150.605 43.9077 151.516 44.7528C152.428 45.598 152.883 46.7083 152.883 48.0838C152.883 49.335 152.515 50.4329 151.777 51.3775C151.048 52.3221 150.045 53.0595 148.769 53.5898C147.502 54.1119 146.039 54.3729 144.382 54.3729C141.855 54.3729 139.841 53.8467 138.341 52.7944C136.85 51.7338 135.976 50.292 135.719 48.4691L140.927 48.1957C141.084 48.9663 141.465 49.5546 142.07 49.9606C142.675 50.3583 143.45 50.5572 144.394 50.5572C145.322 50.5572 146.068 50.379 146.632 50.0227C147.203 49.6581 147.493 49.19 147.502 48.6183C147.493 48.1377 147.29 47.7441 146.893 47.4375C146.495 47.1226 145.882 46.8823 145.053 46.7166L141.747 46.0579C139.883 45.685 138.495 45.0387 137.583 44.119C136.68 43.1992 136.229 42.0268 136.229 40.6016C136.229 39.3752 136.56 38.3188 137.223 37.4322C137.894 36.5456 138.834 35.862 140.044 35.3814C141.262 34.9008 142.687 34.6605 144.32 34.6605C146.731 34.6605 148.628 35.1701 150.012 36.1893C151.404 37.2085 152.216 38.5964 152.448 40.353ZM172.102 40.353L167.254 40.6513C167.171 40.237 166.993 39.8641 166.72 39.5327C166.446 39.1929 166.086 38.9237 165.639 38.7248C165.199 38.5176 164.673 38.4141 164.06 38.4141C163.24 38.4141 162.548 38.5881 161.984 38.9361C161.421 39.2758 161.139 39.7315 161.139 40.3033C161.139 40.759 161.322 41.1443 161.686 41.4592C162.051 41.774 162.676 42.0268 163.563 42.2173L167.018 42.9134C168.874 43.2945 170.258 43.9077 171.169 44.7528C172.081 45.598 172.537 46.7083 172.537 48.0838C172.537 49.335 172.168 50.4329 171.43 51.3775C170.701 52.3221 169.699 53.0595 168.423 53.5898C167.155 54.1119 165.692 54.3729 164.035 54.3729C161.508 54.3729 159.495 53.8467 157.995 52.7944C156.503 51.7338 155.629 50.292 155.372 48.4691L160.58 48.1957C160.737 48.9663 161.119 49.5546 161.723 49.9606C162.328 50.3583 163.103 50.5572 164.048 50.5572C164.976 50.5572 165.721 50.379 166.285 50.0227C166.857 49.6581 167.147 49.19 167.155 48.6183C167.147 48.1377 166.944 47.7441 166.546 47.4375C166.148 47.1226 165.535 46.8823 164.706 46.7166L161.4 46.0579C159.536 45.685 158.148 45.0387 157.237 44.119C156.333 43.1992 155.882 42.0268 155.882 40.6016C155.882 39.3752 156.213 38.3188 156.876 37.4322C157.547 36.5456 158.488 35.862 159.698 35.3814C160.916 34.9008 162.341 34.6605 163.973 34.6605C166.384 34.6605 168.282 35.1701 169.666 36.1893C171.058 37.2085 171.87 38.5964 172.102 40.353ZM179.637 54L174.441 34.9091H179.798L182.756 47.7358H182.93L186.013 34.9091H191.27L194.402 47.6612H194.564L197.472 34.9091H202.817L197.634 54H192.028L188.747 41.9936H188.511L185.23 54H179.637ZM213.788 54.3729C211.858 54.3729 210.188 53.9627 208.78 53.1424C207.379 52.3138 206.298 51.1621 205.536 49.6871C204.773 48.204 204.392 46.4846 204.392 44.5291C204.392 42.5571 204.773 40.8336 205.536 39.3587C206.298 37.8755 207.379 36.7237 208.78 35.9034C210.188 35.0748 211.858 34.6605 213.788 34.6605C215.719 34.6605 217.385 35.0748 218.785 35.9034C220.194 36.7237 221.279 37.8755 222.041 39.3587C222.804 40.8336 223.185 42.5571 223.185 44.5291C223.185 46.4846 222.804 48.204 222.041 49.6871C221.279 51.1621 220.194 52.3138 218.785 53.1424C217.385 53.9627 215.719 54.3729 213.788 54.3729ZM213.813 50.2713C214.692 50.2713 215.425 50.0227 216.013 49.5256C216.602 49.0201 217.045 48.3324 217.343 47.4624C217.65 46.5923 217.803 45.6022 217.803 44.4918C217.803 43.3815 217.65 42.3913 217.343 41.5213C217.045 40.6513 216.602 39.9635 216.013 39.4581C215.425 38.9527 214.692 38.6999 213.813 38.6999C212.927 38.6999 212.181 38.9527 211.576 39.4581C210.979 39.9635 210.528 40.6513 210.221 41.5213C209.923 42.3913 209.774 43.3815 209.774 44.4918C209.774 45.6022 209.923 46.5923 210.221 47.4624C210.528 48.3324 210.979 49.0201 211.576 49.5256C212.181 50.0227 212.927 50.2713 213.813 50.2713ZM226.628 54V34.9091H231.761V38.2401H231.96C232.308 37.0552 232.892 36.1603 233.712 35.5554C234.532 34.9422 235.477 34.6357 236.546 34.6357C236.811 34.6357 237.097 34.6522 237.403 34.6854C237.71 34.7185 237.979 34.7641 238.211 34.8221V39.5202C237.963 39.4457 237.619 39.3794 237.18 39.3214C236.741 39.2634 236.339 39.2344 235.974 39.2344C235.195 39.2344 234.499 39.4042 233.886 39.744C233.281 40.0754 232.801 40.5394 232.444 41.136C232.096 41.7326 231.922 42.4203 231.922 43.1992V54H226.628ZM247.095 54.3107C245.645 54.3107 244.332 53.9379 243.155 53.1921C241.987 52.4381 241.059 51.3319 240.371 49.8736C239.691 48.407 239.352 46.6089 239.352 44.4794C239.352 42.2919 239.704 40.4731 240.408 39.0231C241.113 37.5647 242.049 36.4751 243.217 35.7543C244.394 35.0251 245.682 34.6605 247.083 34.6605C248.151 34.6605 249.042 34.8428 249.755 35.2074C250.476 35.5637 251.056 36.0111 251.495 36.5497C251.942 37.08 252.282 37.602 252.514 38.1158H252.676V28.5455H257.958V54H252.738V50.9425H252.514C252.265 51.4728 251.913 51.9989 251.458 52.521C251.01 53.0347 250.426 53.4614 249.705 53.8011C248.992 54.1409 248.122 54.3107 247.095 54.3107ZM248.773 50.0973C249.626 50.0973 250.347 49.8653 250.936 49.4013C251.532 48.929 251.988 48.2702 252.303 47.4251C252.626 46.5799 252.787 45.5897 252.787 44.4545C252.787 43.3194 252.63 42.3333 252.315 41.4964C252 40.6596 251.545 40.0133 250.948 39.5575C250.351 39.1018 249.626 38.8739 248.773 38.8739C247.903 38.8739 247.17 39.1101 246.573 39.5824C245.976 40.0547 245.525 40.7093 245.218 41.5462C244.912 42.383 244.758 43.3525 244.758 44.4545C244.758 45.5649 244.912 46.5468 245.218 47.4002C245.533 48.2454 245.985 48.9083 246.573 49.3888C247.17 49.8612 247.903 50.0973 248.773 50.0973ZM287.39 36.7734C287.216 36.1686 286.971 35.6341 286.656 35.1701C286.342 34.6978 285.956 34.3001 285.501 33.9769C285.053 33.6455 284.539 33.3928 283.959 33.2188C283.388 33.0447 282.754 32.9577 282.058 32.9577C280.757 32.9577 279.613 33.2809 278.627 33.9272C277.65 34.5735 276.887 35.514 276.34 36.7486C275.794 37.9749 275.52 39.4747 275.52 41.2479C275.52 43.0211 275.789 44.5291 276.328 45.772C276.867 47.0149 277.629 47.9637 278.615 48.6183C279.601 49.2646 280.765 49.5877 282.107 49.5877C283.325 49.5877 284.365 49.3723 285.227 48.9414C286.097 48.5022 286.76 47.8849 287.216 47.0895C287.68 46.294 287.912 45.3536 287.912 44.2681L289.006 44.4297H282.443V40.3778H293.095V43.5845C293.095 45.8217 292.622 47.7441 291.678 49.3516C290.733 50.9508 289.432 52.1854 287.775 53.0554C286.118 53.9171 284.22 54.348 282.083 54.348C279.696 54.348 277.6 53.8219 275.794 52.7695C273.987 51.7089 272.579 50.205 271.568 48.2578C270.565 46.3023 270.064 43.9822 270.064 41.2976C270.064 39.2344 270.362 37.3949 270.959 35.7791C271.564 34.1551 272.409 32.7796 273.494 31.6527C274.58 30.5258 275.843 29.6682 277.285 29.0799C278.727 28.4916 280.289 28.1974 281.971 28.1974C283.412 28.1974 284.755 28.4087 285.998 28.8313C287.241 29.2456 288.343 29.8339 289.304 30.5962C290.273 31.3585 291.065 32.2659 291.678 33.3182C292.291 34.3622 292.684 35.514 292.858 36.7734H287.39ZM305.738 54.3729C303.774 54.3729 302.084 53.9751 300.667 53.1797C299.258 52.3759 298.173 51.2408 297.411 49.7741C296.648 48.2992 296.267 46.555 296.267 44.5415C296.267 42.5778 296.648 40.8543 297.411 39.3711C298.173 37.8879 299.246 36.732 300.63 35.9034C302.022 35.0748 303.654 34.6605 305.527 34.6605C306.786 34.6605 307.959 34.8635 309.044 35.2695C310.138 35.6673 311.091 36.268 311.903 37.0717C312.723 37.8755 313.361 38.8864 313.817 40.1044C314.273 41.3142 314.5 42.7311 314.5 44.3551V45.8093H298.38V42.5281H309.516C309.516 41.7657 309.351 41.0904 309.019 40.5021C308.688 39.9138 308.228 39.454 307.64 39.1225C307.06 38.7828 306.384 38.6129 305.614 38.6129C304.81 38.6129 304.097 38.7994 303.476 39.1722C302.863 39.5368 302.382 40.0298 302.034 40.6513C301.686 41.2644 301.508 41.948 301.5 42.7021V45.8217C301.5 46.7663 301.674 47.5825 302.022 48.2702C302.378 48.958 302.879 49.4883 303.526 49.8612C304.172 50.234 304.938 50.4205 305.825 50.4205C306.413 50.4205 306.952 50.3376 307.441 50.1719C307.93 50.0062 308.348 49.7576 308.696 49.4261C309.044 49.0947 309.309 48.6887 309.492 48.2081L314.389 48.5312C314.14 49.7079 313.63 50.7353 312.86 51.6136C312.098 52.4837 311.111 53.1631 309.902 53.652C308.7 54.1326 307.312 54.3729 305.738 54.3729ZM323.25 42.9631V54H317.956V34.9091H323.002V38.2773H323.226C323.648 37.167 324.357 36.2887 325.351 35.6424C326.345 34.9878 327.551 34.6605 328.968 34.6605C330.294 34.6605 331.449 34.9505 332.435 35.5305C333.421 36.1106 334.188 36.9392 334.735 38.0163C335.282 39.0852 335.555 40.3613 335.555 41.8445V54H330.26V42.7891C330.269 41.6207 329.97 40.7093 329.366 40.0547C328.761 39.3918 327.928 39.0604 326.867 39.0604C326.155 39.0604 325.525 39.2137 324.978 39.5202C324.439 39.8268 324.017 40.2743 323.71 40.8626C323.412 41.4426 323.259 42.1428 323.25 42.9631ZM348.428 54.3729C346.465 54.3729 344.774 53.9751 343.357 53.1797C341.949 52.3759 340.863 51.2408 340.101 49.7741C339.339 48.2992 338.958 46.555 338.958 44.5415C338.958 42.5778 339.339 40.8543 340.101 39.3711C340.863 37.8879 341.936 36.732 343.32 35.9034C344.712 35.0748 346.345 34.6605 348.217 34.6605C349.477 34.6605 350.649 34.8635 351.735 35.2695C352.828 35.6673 353.781 36.268 354.593 37.0717C355.414 37.8755 356.052 38.8864 356.507 40.1044C356.963 41.3142 357.191 42.7311 357.191 44.3551V45.8093H341.07V42.5281H352.207C352.207 41.7657 352.041 41.0904 351.71 40.5021C351.378 39.9138 350.918 39.454 350.33 39.1225C349.75 38.7828 349.075 38.6129 348.304 38.6129C347.5 38.6129 346.788 38.7994 346.166 39.1722C345.553 39.5368 345.073 40.0298 344.725 40.6513C344.377 41.2644 344.198 41.948 344.19 42.7021V45.8217C344.19 46.7663 344.364 47.5825 344.712 48.2702C345.068 48.958 345.57 49.4883 346.216 49.8612C346.862 50.234 347.629 50.4205 348.515 50.4205C349.104 50.4205 349.642 50.3376 350.131 50.1719C350.62 50.0062 351.039 49.7576 351.387 49.4261C351.735 49.0947 352 48.6887 352.182 48.2081L357.079 48.5312C356.83 49.7079 356.321 50.7353 355.55 51.6136C354.788 52.4837 353.802 53.1631 352.592 53.652C351.391 54.1326 350.003 54.3729 348.428 54.3729ZM360.646 54V34.9091H365.779V38.2401H365.978C366.326 37.0552 366.91 36.1603 367.731 35.5554C368.551 34.9422 369.496 34.6357 370.564 34.6357C370.83 34.6357 371.115 34.6522 371.422 34.6854C371.729 34.7185 371.998 34.7641 372.23 34.8221V39.5202C371.981 39.4457 371.637 39.3794 371.198 39.3214C370.759 39.2634 370.357 39.2344 369.993 39.2344C369.214 39.2344 368.518 39.4042 367.905 39.744C367.3 40.0754 366.819 40.5394 366.463 41.136C366.115 41.7326 365.941 42.4203 365.941 43.1992V54H360.646ZM379.864 54.3604C378.646 54.3604 377.561 54.1491 376.608 53.7266C375.655 53.2957 374.901 52.6618 374.346 51.8249C373.799 50.9798 373.526 49.9274 373.526 48.668C373.526 47.6074 373.72 46.7166 374.11 45.9957C374.499 45.2749 375.03 44.6948 375.701 44.2557C376.372 43.8165 377.134 43.4851 377.988 43.2614C378.849 43.0376 379.753 42.8802 380.697 42.7891C381.807 42.6731 382.702 42.5653 383.382 42.4659C384.061 42.3582 384.554 42.2008 384.861 41.9936C385.167 41.7865 385.321 41.4799 385.321 41.0739V40.9993C385.321 40.2121 385.072 39.6031 384.575 39.1722C384.086 38.7414 383.39 38.5259 382.487 38.5259C381.534 38.5259 380.776 38.7372 380.212 39.1598C379.649 39.5741 379.276 40.0961 379.094 40.7259L374.197 40.3281C374.445 39.1681 374.934 38.1655 375.663 37.3203C376.393 36.4669 377.333 35.8123 378.485 35.3565C379.645 34.8925 380.987 34.6605 382.512 34.6605C383.572 34.6605 384.587 34.7848 385.557 35.0334C386.535 35.282 387.401 35.6673 388.155 36.1893C388.917 36.7113 389.518 37.3825 389.957 38.2028C390.396 39.0148 390.616 39.9884 390.616 41.1236V54H385.594V51.3526H385.445C385.138 51.9492 384.728 52.4754 384.215 52.9311C383.701 53.3786 383.084 53.7307 382.363 53.9876C381.642 54.2362 380.809 54.3604 379.864 54.3604ZM381.381 50.7063C382.16 50.7063 382.847 50.553 383.444 50.2464C384.041 49.9316 384.509 49.509 384.848 48.9787C385.188 48.4484 385.358 47.8477 385.358 47.1765V45.1506C385.192 45.2583 384.964 45.3577 384.674 45.4489C384.393 45.5317 384.074 45.6104 383.717 45.685C383.361 45.7513 383.005 45.8134 382.649 45.8714C382.292 45.9212 381.969 45.9667 381.679 46.0082C381.058 46.0993 380.515 46.2443 380.051 46.4432C379.587 46.642 379.226 46.9113 378.97 47.2511C378.713 47.5825 378.584 47.9968 378.584 48.494C378.584 49.2148 378.845 49.7659 379.367 50.147C379.898 50.5199 380.569 50.7063 381.381 50.7063ZM404.878 34.9091V38.8864H393.381V34.9091H404.878ZM395.991 30.3352H401.286V48.1335C401.286 48.6224 401.36 49.0036 401.509 49.277C401.659 49.5421 401.866 49.7286 402.131 49.8363C402.404 49.944 402.719 49.9979 403.076 49.9979C403.324 49.9979 403.573 49.9772 403.821 49.9357C404.07 49.886 404.26 49.8487 404.393 49.8239L405.226 53.7638C404.961 53.8467 404.588 53.942 404.107 54.0497C403.627 54.1657 403.042 54.2362 402.355 54.261C401.079 54.3107 399.96 54.1409 398.999 53.7514C398.046 53.362 397.304 52.7571 396.774 51.9368C396.244 51.1165 395.983 50.0807 395.991 48.8295V30.3352ZM416.747 54.3729C414.817 54.3729 413.147 53.9627 411.739 53.1424C410.338 52.3138 409.257 51.1621 408.495 49.6871C407.732 48.204 407.351 46.4846 407.351 44.5291C407.351 42.5571 407.732 40.8336 408.495 39.3587C409.257 37.8755 410.338 36.7237 411.739 35.9034C413.147 35.0748 414.817 34.6605 416.747 34.6605C418.678 34.6605 420.344 35.0748 421.744 35.9034C423.152 36.7237 424.238 37.8755 425 39.3587C425.763 40.8336 426.144 42.5571 426.144 44.5291C426.144 46.4846 425.763 48.204 425 49.6871C424.238 51.1621 423.152 52.3138 421.744 53.1424C420.344 53.9627 418.678 54.3729 416.747 54.3729ZM416.772 50.2713C417.651 50.2713 418.384 50.0227 418.972 49.5256C419.561 49.0201 420.004 48.3324 420.302 47.4624C420.609 46.5923 420.762 45.6022 420.762 44.4918C420.762 43.3815 420.609 42.3913 420.302 41.5213C420.004 40.6513 419.561 39.9635 418.972 39.4581C418.384 38.9527 417.651 38.6999 416.772 38.6999C415.886 38.6999 415.14 38.9527 414.535 39.4581C413.938 39.9635 413.487 40.6513 413.18 41.5213C412.882 42.3913 412.733 43.3815 412.733 44.4918C412.733 45.6022 412.882 46.5923 413.18 47.4624C413.487 48.3324 413.938 49.0201 414.535 49.5256C415.14 50.0227 415.886 50.2713 416.772 50.2713ZM429.587 54V34.9091H434.72V38.2401H434.919C435.267 37.0552 435.851 36.1603 436.671 35.5554C437.491 34.9422 438.436 34.6357 439.505 34.6357C439.77 34.6357 440.056 34.6522 440.362 34.6854C440.669 34.7185 440.938 34.7641 441.17 34.8221V39.5202C440.922 39.4457 440.578 39.3794 440.139 39.3214C439.7 39.2634 439.298 39.2344 438.933 39.2344C438.154 39.2344 437.458 39.4042 436.845 39.744C436.24 40.0754 435.76 40.5394 435.403 41.136C435.055 41.7326 434.881 42.4203 434.881 43.1992V54H429.587Z" fill="black"/>
<path d="M25.4801 78.0909H26.8011V85.3139C26.8011 86.0597 26.6254 86.7255 26.2738 87.3114C25.9258 87.8938 25.4339 88.3537 24.7983 88.6911C24.1626 89.0249 23.4169 89.1918 22.5611 89.1918C21.7053 89.1918 20.9595 89.0249 20.3239 88.6911C19.6882 88.3537 19.1946 87.8938 18.843 87.3114C18.495 86.7255 18.321 86.0597 18.321 85.3139V78.0909H19.642V85.2074C19.642 85.7401 19.7592 86.2141 19.9936 86.6296C20.228 87.0415 20.5618 87.3665 20.995 87.6044C21.4318 87.8388 21.9538 87.956 22.5611 87.956C23.1683 87.956 23.6903 87.8388 24.1271 87.6044C24.5639 87.3665 24.8977 87.0415 25.1286 86.6296C25.3629 86.2141 25.4801 85.7401 25.4801 85.2074V78.0909ZM35.0642 82.6506L33.9349 82.9702C33.8639 82.782 33.7591 82.5991 33.6207 82.4215C33.4857 82.2404 33.301 82.0913 33.0667 81.9741C32.8323 81.8569 32.5322 81.7983 32.1665 81.7983C31.6657 81.7983 31.2485 81.9137 30.9147 82.1445C30.5844 82.3718 30.4193 82.6612 30.4193 83.0128C30.4193 83.3253 30.5329 83.5721 30.7602 83.7532C30.9875 83.9343 31.3426 84.0852 31.8256 84.206L33.04 84.5043C33.7716 84.6818 34.3167 84.9535 34.6753 85.3192C35.034 85.6815 35.2133 86.1484 35.2133 86.7202C35.2133 87.1889 35.0784 87.608 34.8085 87.9773C34.5422 88.3466 34.1693 88.6378 33.6899 88.8509C33.2105 89.0639 32.653 89.1705 32.0173 89.1705C31.1828 89.1705 30.4921 88.9893 29.9452 88.6271C29.3983 88.2649 29.0521 87.7358 28.9065 87.0398L30.0997 86.7415C30.2133 87.1818 30.4282 87.5121 30.7442 87.7322C31.0638 87.9524 31.4811 88.0625 31.996 88.0625C32.5819 88.0625 33.0471 87.9382 33.3916 87.6896C33.7396 87.4375 33.9136 87.1357 33.9136 86.7841C33.9136 86.5 33.8142 86.2621 33.6153 86.0703C33.4165 85.875 33.1111 85.7294 32.6991 85.6335L31.3355 85.3139C30.5862 85.1364 30.0358 84.8612 29.6842 84.4883C29.3362 84.1119 29.1622 83.6413 29.1622 83.0767C29.1622 82.6151 29.2918 82.2067 29.551 81.8516C29.8138 81.4964 30.1707 81.2177 30.6217 81.0153C31.0763 80.8129 31.5912 80.7116 32.1665 80.7116C32.9761 80.7116 33.6118 80.8892 34.0734 81.2443C34.5386 81.5994 34.8689 82.0682 35.0642 82.6506ZM40.536 89.1705C39.7477 89.1705 39.0676 88.9964 38.4959 88.6484C37.9277 88.2969 37.4892 87.8068 37.1802 87.1783C36.8748 86.5462 36.7221 85.8111 36.7221 84.973C36.7221 84.1349 36.8748 83.3963 37.1802 82.7571C37.4892 82.1143 37.9189 81.6136 38.4693 81.255C39.0233 80.8928 39.6696 80.7116 40.4082 80.7116C40.8343 80.7116 41.2551 80.7827 41.6706 80.9247C42.0861 81.0668 42.4643 81.2976 42.8052 81.6172C43.1461 81.9332 43.4178 82.3523 43.6202 82.8743C43.8226 83.3963 43.9238 84.0391 43.9238 84.8026V85.3352H37.617V84.2486H42.6454C42.6454 83.7869 42.5531 83.375 42.3684 83.0128C42.1873 82.6506 41.9281 82.3647 41.5907 82.1552C41.2569 81.9457 40.8627 81.8409 40.4082 81.8409C39.9075 81.8409 39.4743 81.9652 39.1085 82.2138C38.7463 82.4588 38.4675 82.7784 38.2722 83.1726C38.0769 83.5668 37.9792 83.9893 37.9792 84.4403V85.1648C37.9792 85.7827 38.0858 86.3065 38.2988 86.7362C38.5154 87.1623 38.8155 87.4872 39.199 87.7109C39.5826 87.9311 40.0282 88.0412 40.536 88.0412C40.8663 88.0412 41.1646 87.995 41.4309 87.9027C41.7008 87.8068 41.9334 87.6648 42.1287 87.4766C42.324 87.2848 42.475 87.0469 42.5815 86.7628L43.796 87.1037C43.6681 87.5156 43.4533 87.8778 43.1515 88.1903C42.8496 88.4993 42.4767 88.7408 42.0328 88.9148C41.589 89.0852 41.09 89.1705 40.536 89.1705ZM53.3787 89.1705C52.6401 89.1705 51.992 88.9947 51.4345 88.6431C50.8805 88.2915 50.4473 87.7997 50.1348 87.1676C49.8258 86.5355 49.6713 85.7969 49.6713 84.9517C49.6713 84.0994 49.8258 83.3555 50.1348 82.7198C50.4473 82.0842 50.8805 81.5906 51.4345 81.239C51.992 80.8874 52.6401 80.7116 53.3787 80.7116C54.1174 80.7116 54.7637 80.8874 55.3176 81.239C55.8752 81.5906 56.3084 82.0842 56.6174 82.7198C56.9299 83.3555 57.0861 84.0994 57.0861 84.9517C57.0861 85.7969 56.9299 86.5355 56.6174 87.1676C56.3084 87.7997 55.8752 88.2915 55.3176 88.6431C54.7637 88.9947 54.1174 89.1705 53.3787 89.1705ZM53.3787 88.0412C53.9398 88.0412 54.4015 87.8974 54.7637 87.6097C55.1259 87.3221 55.394 86.9439 55.568 86.4751C55.742 86.0064 55.829 85.4986 55.829 84.9517C55.829 84.4048 55.742 83.8952 55.568 83.4229C55.394 82.9506 55.1259 82.5689 54.7637 82.2777C54.4015 81.9865 53.9398 81.8409 53.3787 81.8409C52.8176 81.8409 52.356 81.9865 51.9938 82.2777C51.6316 82.5689 51.3635 82.9506 51.1895 83.4229C51.0154 83.8952 50.9284 84.4048 50.9284 84.9517C50.9284 85.4986 51.0154 86.0064 51.1895 86.4751C51.3635 86.9439 51.6316 87.3221 51.9938 87.6097C52.356 87.8974 52.8176 88.0412 53.3787 88.0412ZM64.1613 85.6548V80.8182H65.4184V89H64.1613V87.6151H64.0761C63.8843 88.0305 63.586 88.3839 63.1812 88.6751C62.7764 88.9627 62.265 89.1065 61.6471 89.1065C61.1357 89.1065 60.6812 88.9947 60.2835 88.771C59.8857 88.5437 59.5732 88.2028 59.346 87.7482C59.1187 87.2901 59.0051 86.7131 59.0051 86.017V80.8182H60.2622V85.9318C60.2622 86.5284 60.4291 87.0043 60.7629 87.3594C61.1002 87.7145 61.5299 87.892 62.0519 87.892C62.3644 87.892 62.6823 87.8121 63.0054 87.6523C63.3321 87.4925 63.6056 87.2475 63.8257 86.9173C64.0494 86.587 64.1613 86.1662 64.1613 85.6548ZM67.7209 89V80.8182H68.9354V82.054H69.0206C69.1697 81.6491 69.4396 81.3207 69.8303 81.0685C70.2209 80.8164 70.6612 80.6903 71.1513 80.6903C71.2436 80.6903 71.359 80.6921 71.4975 80.6957C71.636 80.6992 71.7408 80.7045 71.8118 80.7116V81.9901C71.7692 81.9794 71.6715 81.9634 71.5188 81.9421C71.3697 81.9173 71.2116 81.9048 71.0447 81.9048C70.647 81.9048 70.2919 81.9883 69.9794 82.1552C69.6705 82.3185 69.4254 82.5458 69.2443 82.837C69.0668 83.1246 68.978 83.4531 68.978 83.8224V89H67.7209ZM80.8445 89.1705C80.1059 89.1705 79.4578 88.9947 78.9003 88.6431C78.3463 88.2915 77.9131 87.7997 77.6006 87.1676C77.2916 86.5355 77.1372 85.7969 77.1372 84.9517C77.1372 84.0994 77.2916 83.3555 77.6006 82.7198C77.9131 82.0842 78.3463 81.5906 78.9003 81.239C79.4578 80.8874 80.1059 80.7116 80.8445 80.7116C81.5832 80.7116 82.2295 80.8874 82.7835 81.239C83.341 81.5906 83.7742 82.0842 84.0832 82.7198C84.3957 83.3555 84.5519 84.0994 84.5519 84.9517C84.5519 85.7969 84.3957 86.5355 84.0832 87.1676C83.7742 87.7997 83.341 88.2915 82.7835 88.6431C82.2295 88.9947 81.5832 89.1705 80.8445 89.1705ZM80.8445 88.0412C81.4056 88.0412 81.8673 87.8974 82.2295 87.6097C82.5917 87.3221 82.8598 86.9439 83.0338 86.4751C83.2078 86.0064 83.2948 85.4986 83.2948 84.9517C83.2948 84.4048 83.2078 83.8952 83.0338 83.4229C82.8598 82.9506 82.5917 82.5689 82.2295 82.2777C81.8673 81.9865 81.4056 81.8409 80.8445 81.8409C80.2835 81.8409 79.8218 81.9865 79.4596 82.2777C79.0974 82.5689 78.8293 82.9506 78.6553 83.4229C78.4813 83.8952 78.3943 84.4048 78.3943 84.9517C78.3943 85.4986 78.4813 86.0064 78.6553 86.4751C78.8293 86.9439 79.0974 87.3221 79.4596 87.6097C79.8218 87.8974 80.2835 88.0412 80.8445 88.0412ZM87.728 84.0781V89H86.4709V80.8182H87.6854V82.0966H87.7919C87.9837 81.6811 88.2749 81.3473 88.6655 81.0952C89.0561 80.8395 89.5604 80.7116 90.1783 80.7116C90.7322 80.7116 91.217 80.8253 91.6325 81.0526C92.0479 81.2763 92.3711 81.6172 92.6019 82.0753C92.8327 82.5298 92.9482 83.1051 92.9482 83.8011V89H91.6911V83.8864C91.6911 83.2436 91.5241 82.7429 91.1903 82.3842C90.8565 82.022 90.3984 81.8409 89.8161 81.8409C89.4148 81.8409 89.0561 81.9279 88.7401 82.1019C88.4276 82.2759 88.1808 82.5298 87.9996 82.8636C87.8185 83.1974 87.728 83.6023 87.728 84.0781ZM96.5024 78.0909V89H95.2453V78.0909H96.5024ZM98.8049 89V80.8182H100.062V89H98.8049ZM99.4441 79.4545C99.199 79.4545 98.9877 79.3711 98.8102 79.2042C98.6362 79.0373 98.5492 78.8366 98.5492 78.6023C98.5492 78.3679 98.6362 78.1673 98.8102 78.0004C98.9877 77.8335 99.199 77.75 99.4441 77.75C99.6891 77.75 99.8986 77.8335 100.073 78.0004C100.25 78.1673 100.339 78.3679 100.339 78.6023C100.339 78.8366 100.25 79.0373 100.073 79.2042C99.8986 79.3711 99.6891 79.4545 99.4441 79.4545ZM103.622 84.0781V89H102.364V80.8182H103.579V82.0966H103.685C103.877 81.6811 104.168 81.3473 104.559 81.0952C104.95 80.8395 105.454 80.7116 106.072 80.7116C106.626 80.7116 107.111 80.8253 107.526 81.0526C107.941 81.2763 108.265 81.6172 108.495 82.0753C108.726 82.5298 108.842 83.1051 108.842 83.8011V89H107.585V83.8864C107.585 83.2436 107.418 82.7429 107.084 82.3842C106.75 82.022 106.292 81.8409 105.71 81.8409C105.308 81.8409 104.95 81.9279 104.634 82.1019C104.321 82.2759 104.074 82.5298 103.893 82.8636C103.712 83.1974 103.622 83.6023 103.622 84.0781ZM114.569 89.1705C113.781 89.1705 113.101 88.9964 112.529 88.6484C111.961 88.2969 111.522 87.8068 111.213 87.1783C110.908 86.5462 110.755 85.8111 110.755 84.973C110.755 84.1349 110.908 83.3963 111.213 82.7571C111.522 82.1143 111.952 81.6136 112.502 81.255C113.056 80.8928 113.703 80.7116 114.441 80.7116C114.868 80.7116 115.288 80.7827 115.704 80.9247C116.119 81.0668 116.498 81.2976 116.838 81.6172C117.179 81.9332 117.451 82.3523 117.653 82.8743C117.856 83.3963 117.957 84.0391 117.957 84.8026V85.3352H111.65V84.2486H116.679C116.679 83.7869 116.586 83.375 116.402 83.0128C116.221 82.6506 115.961 82.3647 115.624 82.1552C115.29 81.9457 114.896 81.8409 114.441 81.8409C113.941 81.8409 113.507 81.9652 113.142 82.2138C112.779 82.4588 112.501 82.7784 112.305 83.1726C112.11 83.5668 112.012 83.9893 112.012 84.4403V85.1648C112.012 85.7827 112.119 86.3065 112.332 86.7362C112.549 87.1623 112.849 87.4872 113.232 87.7109C113.616 87.9311 114.061 88.0412 114.569 88.0412C114.9 88.0412 115.198 87.995 115.464 87.9027C115.734 87.8068 115.967 87.6648 116.162 87.4766C116.357 87.2848 116.508 87.0469 116.615 86.7628L117.829 87.1037C117.701 87.5156 117.487 87.8778 117.185 88.1903C116.883 88.4993 116.51 88.7408 116.066 88.9148C115.622 89.0852 115.123 89.1705 114.569 89.1705ZM127.391 92.2386C126.783 92.2386 126.261 92.1605 125.825 92.0043C125.388 91.8516 125.024 91.6491 124.733 91.397C124.445 91.1484 124.216 90.8821 124.045 90.598L125.047 89.8949C125.161 90.044 125.304 90.2145 125.478 90.4062C125.652 90.6016 125.89 90.7702 126.192 90.9123C126.498 91.0579 126.897 91.1307 127.391 91.1307C128.051 91.1307 128.596 90.9709 129.026 90.6513C129.456 90.3317 129.67 89.831 129.67 89.1491V87.4872H129.564C129.472 87.6364 129.34 87.821 129.17 88.0412C129.003 88.2578 128.761 88.4513 128.445 88.6218C128.133 88.7887 127.71 88.8722 127.178 88.8722C126.517 88.8722 125.924 88.7159 125.398 88.4034C124.876 88.0909 124.463 87.6364 124.157 87.0398C123.855 86.4432 123.705 85.7187 123.705 84.8665C123.705 84.0284 123.852 83.2987 124.147 82.6772C124.441 82.0522 124.852 81.5692 125.377 81.2283C125.903 80.8839 126.51 80.7116 127.199 80.7116C127.732 80.7116 128.154 80.8004 128.467 80.978C128.783 81.152 129.024 81.3509 129.191 81.5746C129.362 81.7947 129.493 81.9759 129.585 82.1179H129.713V80.8182H130.928V89.2344C130.928 89.9375 130.768 90.5092 130.448 90.9496C130.132 91.3935 129.706 91.7184 129.17 91.9244C128.637 92.1339 128.044 92.2386 127.391 92.2386ZM127.348 87.7429C127.852 87.7429 128.278 87.6275 128.626 87.3967C128.974 87.1658 129.239 86.8338 129.42 86.4006C129.601 85.9673 129.692 85.4489 129.692 84.8452C129.692 84.2557 129.603 83.7354 129.425 83.2844C129.248 82.8335 128.985 82.4801 128.637 82.2244C128.289 81.9687 127.859 81.8409 127.348 81.8409C126.815 81.8409 126.371 81.9759 126.016 82.2457C125.665 82.5156 125.4 82.8778 125.223 83.3324C125.049 83.7869 124.962 84.2912 124.962 84.8452C124.962 85.4134 125.05 85.9158 125.228 86.3526C125.409 86.7859 125.675 87.1268 126.027 87.3754C126.382 87.6204 126.822 87.7429 127.348 87.7429ZM136.659 89.1705C135.871 89.1705 135.191 88.9964 134.619 88.6484C134.051 88.2969 133.612 87.8068 133.303 87.1783C132.998 86.5462 132.845 85.8111 132.845 84.973C132.845 84.1349 132.998 83.3963 133.303 82.7571C133.612 82.1143 134.042 81.6136 134.592 81.255C135.146 80.8928 135.793 80.7116 136.531 80.7116C136.957 80.7116 137.378 80.7827 137.794 80.9247C138.209 81.0668 138.587 81.2976 138.928 81.6172C139.269 81.9332 139.541 82.3523 139.743 82.8743C139.946 83.3963 140.047 84.0391 140.047 84.8026V85.3352H133.74V84.2486H138.768C138.768 83.7869 138.676 83.375 138.491 83.0128C138.31 82.6506 138.051 82.3647 137.714 82.1552C137.38 81.9457 136.986 81.8409 136.531 81.8409C136.031 81.8409 135.597 81.9652 135.232 82.2138C134.869 82.4588 134.591 82.7784 134.395 83.1726C134.2 83.5668 134.102 83.9893 134.102 84.4403V85.1648C134.102 85.7827 134.209 86.3065 134.422 86.7362C134.638 87.1623 134.939 87.4872 135.322 87.7109C135.706 87.9311 136.151 88.0412 136.659 88.0412C136.989 88.0412 137.288 87.995 137.554 87.9027C137.824 87.8068 138.056 87.6648 138.252 87.4766C138.447 87.2848 138.598 87.0469 138.705 86.7628L139.919 87.1037C139.791 87.5156 139.576 87.8778 139.275 88.1903C138.973 88.4993 138.6 88.7408 138.156 88.9148C137.712 89.0852 137.213 89.1705 136.659 89.1705ZM143.216 84.0781V89H141.959V80.8182H143.174V82.0966H143.28C143.472 81.6811 143.763 81.3473 144.154 81.0952C144.544 80.8395 145.049 80.7116 145.667 80.7116C146.221 80.7116 146.705 80.8253 147.121 81.0526C147.536 81.2763 147.859 81.6172 148.09 82.0753C148.321 82.5298 148.436 83.1051 148.436 83.8011V89H147.179V83.8864C147.179 83.2436 147.012 82.7429 146.679 82.3842C146.345 82.022 145.887 81.8409 145.304 81.8409C144.903 81.8409 144.544 81.9279 144.228 82.1019C143.916 82.2759 143.669 82.5298 143.488 82.8636C143.307 83.1974 143.216 83.6023 143.216 84.0781ZM154.164 89.1705C153.376 89.1705 152.696 88.9964 152.124 88.6484C151.556 88.2969 151.117 87.8068 150.808 87.1783C150.503 86.5462 150.35 85.8111 150.35 84.973C150.35 84.1349 150.503 83.3963 150.808 82.7571C151.117 82.1143 151.547 81.6136 152.097 81.255C152.651 80.8928 153.297 80.7116 154.036 80.7116C154.462 80.7116 154.883 80.7827 155.299 80.9247C155.714 81.0668 156.092 81.2976 156.433 81.6172C156.774 81.9332 157.046 82.3523 157.248 82.8743C157.451 83.3963 157.552 84.0391 157.552 84.8026V85.3352H151.245V84.2486H156.273C156.273 83.7869 156.181 83.375 155.996 83.0128C155.815 82.6506 155.556 82.3647 155.219 82.1552C154.885 81.9457 154.491 81.8409 154.036 81.8409C153.535 81.8409 153.102 81.9652 152.736 82.2138C152.374 82.4588 152.095 82.7784 151.9 83.1726C151.705 83.5668 151.607 83.9893 151.607 84.4403V85.1648C151.607 85.7827 151.714 86.3065 151.927 86.7362C152.143 87.1623 152.443 87.4872 152.827 87.7109C153.21 87.9311 153.656 88.0412 154.164 88.0412C154.494 88.0412 154.793 87.995 155.059 87.9027C155.329 87.8068 155.561 87.6648 155.757 87.4766C155.952 87.2848 156.103 87.0469 156.209 86.7628L157.424 87.1037C157.296 87.5156 157.081 87.8778 156.779 88.1903C156.478 88.4993 156.105 88.7408 155.661 88.9148C155.217 89.0852 154.718 89.1705 154.164 89.1705ZM159.464 89V80.8182H160.679V82.054H160.764C160.913 81.6491 161.183 81.3207 161.573 81.0685C161.964 80.8164 162.404 80.6903 162.894 80.6903C162.987 80.6903 163.102 80.6921 163.241 80.6957C163.379 80.6992 163.484 80.7045 163.555 80.7116V81.9901C163.512 81.9794 163.415 81.9634 163.262 81.9421C163.113 81.9173 162.955 81.9048 162.788 81.9048C162.39 81.9048 162.035 81.9883 161.723 82.1552C161.414 82.3185 161.169 82.5458 160.987 82.837C160.81 83.1246 160.721 83.4531 160.721 83.8224V89H159.464ZM167.453 89.1918C166.934 89.1918 166.464 89.0941 166.041 88.8988C165.619 88.6999 165.283 88.4141 165.034 88.0412C164.786 87.6648 164.662 87.2102 164.662 86.6776C164.662 86.2088 164.754 85.8288 164.939 85.5376C165.123 85.2429 165.37 85.0121 165.679 84.8452C165.988 84.6783 166.329 84.554 166.702 84.4723C167.078 84.3871 167.456 84.3196 167.836 84.2699C168.333 84.206 168.737 84.158 169.045 84.1261C169.358 84.0906 169.585 84.032 169.727 83.9503C169.873 83.8686 169.946 83.7266 169.946 83.5241V83.4815C169.946 82.956 169.802 82.5476 169.514 82.2564C169.23 81.9652 168.799 81.8196 168.22 81.8196C167.62 81.8196 167.149 81.951 166.808 82.2138C166.467 82.4766 166.228 82.7571 166.089 83.0554L164.896 82.6293C165.109 82.1321 165.393 81.745 165.748 81.468C166.107 81.1875 166.498 80.9922 166.92 80.8821C167.346 80.7685 167.765 80.7116 168.177 80.7116C168.44 80.7116 168.742 80.7436 169.083 80.8075C169.427 80.8679 169.759 80.994 170.079 81.1857C170.402 81.3775 170.67 81.6669 170.883 82.054C171.096 82.4411 171.203 82.9595 171.203 83.6094V89H169.946V87.892H169.882C169.797 88.0696 169.654 88.2596 169.456 88.462C169.257 88.6644 168.992 88.8366 168.662 88.9787C168.332 89.1207 167.929 89.1918 167.453 89.1918ZM167.645 88.0625C168.142 88.0625 168.561 87.9648 168.902 87.7695C169.246 87.5742 169.505 87.3221 169.679 87.0131C169.857 86.7042 169.946 86.3793 169.946 86.0384V84.8878C169.892 84.9517 169.775 85.0103 169.594 85.0636C169.417 85.1133 169.211 85.1577 168.976 85.1967C168.745 85.2322 168.52 85.2642 168.3 85.2926C168.083 85.3175 167.907 85.3388 167.772 85.3565C167.446 85.3991 167.14 85.4684 166.856 85.5643C166.576 85.6566 166.348 85.7969 166.174 85.9851C166.004 86.1697 165.919 86.4219 165.919 86.7415C165.919 87.1783 166.08 87.5085 166.403 87.7322C166.73 87.9524 167.144 88.0625 167.645 88.0625ZM177.055 80.8182V81.8835H172.815V80.8182H177.055ZM174.051 78.858H175.308V86.6562C175.308 87.0114 175.36 87.2777 175.463 87.4553C175.569 87.6293 175.704 87.7464 175.868 87.8068C176.035 87.8636 176.21 87.892 176.395 87.892C176.533 87.892 176.647 87.8849 176.736 87.8707C176.825 87.853 176.896 87.8388 176.949 87.8281L177.205 88.9574C177.119 88.9893 177 89.0213 176.848 89.0533C176.695 89.0888 176.502 89.1065 176.267 89.1065C175.912 89.1065 175.564 89.0302 175.223 88.8775C174.886 88.7248 174.605 88.4922 174.381 88.1797C174.161 87.8672 174.051 87.473 174.051 86.9972V78.858ZM182.182 89.1705C181.444 89.1705 180.796 88.9947 180.238 88.6431C179.684 88.2915 179.251 87.7997 178.938 87.1676C178.63 86.5355 178.475 85.7969 178.475 84.9517C178.475 84.0994 178.63 83.3555 178.938 82.7198C179.251 82.0842 179.684 81.5906 180.238 81.239C180.796 80.8874 181.444 80.7116 182.182 80.7116C182.921 80.7116 183.567 80.8874 184.121 81.239C184.679 81.5906 185.112 82.0842 185.421 82.7198C185.734 83.3555 185.89 84.0994 185.89 84.9517C185.89 85.7969 185.734 86.5355 185.421 87.1676C185.112 87.7997 184.679 88.2915 184.121 88.6431C183.567 88.9947 182.921 89.1705 182.182 89.1705ZM182.182 88.0412C182.744 88.0412 183.205 87.8974 183.567 87.6097C183.93 87.3221 184.198 86.9439 184.372 86.4751C184.546 86.0064 184.633 85.4986 184.633 84.9517C184.633 84.4048 184.546 83.8952 184.372 83.4229C184.198 82.9506 183.93 82.5689 183.567 82.2777C183.205 81.9865 182.744 81.8409 182.182 81.8409C181.621 81.8409 181.16 81.9865 180.797 82.2777C180.435 82.5689 180.167 82.9506 179.993 83.4229C179.819 83.8952 179.732 84.4048 179.732 84.9517C179.732 85.4986 179.819 86.0064 179.993 86.4751C180.167 86.9439 180.435 87.3221 180.797 87.6097C181.16 87.8974 181.621 88.0412 182.182 88.0412ZM187.809 89V80.8182H189.023V82.054H189.108C189.258 81.6491 189.528 81.3207 189.918 81.0685C190.309 80.8164 190.749 80.6903 191.239 80.6903C191.331 80.6903 191.447 80.6921 191.585 80.6957C191.724 80.6992 191.829 80.7045 191.9 80.7116V81.9901C191.857 81.9794 191.759 81.9634 191.607 81.9421C191.458 81.9173 191.3 81.9048 191.133 81.9048C190.735 81.9048 190.38 81.9883 190.067 82.1552C189.758 82.3185 189.513 82.5458 189.332 82.837C189.155 83.1246 189.066 83.4531 189.066 83.8224V89H187.809ZM201.167 80.8182V81.8835H196.927V80.8182H201.167ZM198.163 78.858H199.42V86.6562C199.42 87.0114 199.471 87.2777 199.574 87.4553C199.681 87.6293 199.816 87.7464 199.979 87.8068C200.146 87.8636 200.322 87.892 200.506 87.892C200.645 87.892 200.758 87.8849 200.847 87.8707C200.936 87.853 201.007 87.8388 201.06 87.8281L201.316 88.9574C201.231 88.9893 201.112 89.0213 200.959 89.0533C200.806 89.0888 200.613 89.1065 200.378 89.1065C200.023 89.1065 199.675 89.0302 199.334 88.8775C198.997 88.7248 198.717 88.4922 198.493 88.1797C198.273 87.8672 198.163 87.473 198.163 86.9972V78.858ZM206.294 89.1705C205.555 89.1705 204.907 88.9947 204.35 88.6431C203.796 88.2915 203.362 87.7997 203.05 87.1676C202.741 86.5355 202.586 85.7969 202.586 84.9517C202.586 84.0994 202.741 83.3555 203.05 82.7198C203.362 82.0842 203.796 81.5906 204.35 81.239C204.907 80.8874 205.555 80.7116 206.294 80.7116C207.032 80.7116 207.679 80.8874 208.233 81.239C208.79 81.5906 209.223 82.0842 209.532 82.7198C209.845 83.3555 210.001 84.0994 210.001 84.9517C210.001 85.7969 209.845 86.5355 209.532 87.1676C209.223 87.7997 208.79 88.2915 208.233 88.6431C207.679 88.9947 207.032 89.1705 206.294 89.1705ZM206.294 88.0412C206.855 88.0412 207.316 87.8974 207.679 87.6097C208.041 87.3221 208.309 86.9439 208.483 86.4751C208.657 86.0064 208.744 85.4986 208.744 84.9517C208.744 84.4048 208.657 83.8952 208.483 83.4229C208.309 82.9506 208.041 82.5689 207.679 82.2777C207.316 81.9865 206.855 81.8409 206.294 81.8409C205.733 81.8409 205.271 81.9865 204.909 82.2777C204.547 82.5689 204.278 82.9506 204.104 83.4229C203.93 83.8952 203.843 84.4048 203.843 84.9517C203.843 85.4986 203.93 86.0064 204.104 86.4751C204.278 86.9439 204.547 87.3221 204.909 87.6097C205.271 87.8974 205.733 88.0412 206.294 88.0412ZM219.463 89.1705C218.696 89.1705 218.035 88.9893 217.481 88.6271C216.927 88.2649 216.501 87.766 216.203 87.1303C215.904 86.4947 215.755 85.7685 215.755 84.9517C215.755 84.1207 215.908 83.3874 216.213 82.7518C216.522 82.1126 216.952 81.6136 217.502 81.255C218.056 80.8928 218.703 80.7116 219.441 80.7116C220.017 80.7116 220.535 80.8182 220.997 81.0312C221.458 81.2443 221.837 81.5426 222.131 81.9261C222.426 82.3097 222.609 82.7571 222.68 83.2685H221.423C221.327 82.8956 221.114 82.5653 220.784 82.2777C220.457 81.9865 220.017 81.8409 219.463 81.8409C218.973 81.8409 218.543 81.9687 218.174 82.2244C217.808 82.4766 217.522 82.8335 217.316 83.2951C217.114 83.7532 217.012 84.2912 217.012 84.9091C217.012 85.5412 217.112 86.0916 217.311 86.5604C217.513 87.0291 217.797 87.3931 218.163 87.6523C218.532 87.9116 218.966 88.0412 219.463 88.0412C219.789 88.0412 220.086 87.9844 220.352 87.8707C220.619 87.7571 220.844 87.5938 221.029 87.3807C221.213 87.1676 221.345 86.9119 221.423 86.6136H222.68C222.609 87.0966 222.433 87.5316 222.153 87.9187C221.876 88.3022 221.508 88.6076 221.05 88.8349C220.596 89.0586 220.066 89.1705 219.463 89.1705ZM224.518 89V80.8182H225.732V82.054H225.817C225.967 81.6491 226.237 81.3207 226.627 81.0685C227.018 80.8164 227.458 80.6903 227.948 80.6903C228.04 80.6903 228.156 80.6921 228.294 80.6957C228.433 80.6992 228.538 80.7045 228.609 80.7116V81.9901C228.566 81.9794 228.468 81.9634 228.316 81.9421C228.167 81.9173 228.009 81.9048 227.842 81.9048C227.444 81.9048 227.089 81.9883 226.776 82.1552C226.467 82.3185 226.222 82.5458 226.041 82.837C225.864 83.1246 225.775 83.4531 225.775 83.8224V89H224.518ZM233.28 89.1705C232.492 89.1705 231.812 88.9964 231.24 88.6484C230.672 88.2969 230.233 87.8068 229.924 87.1783C229.619 86.5462 229.466 85.8111 229.466 84.973C229.466 84.1349 229.619 83.3963 229.924 82.7571C230.233 82.1143 230.663 81.6136 231.213 81.255C231.767 80.8928 232.414 80.7116 233.152 80.7116C233.578 80.7116 233.999 80.7827 234.415 80.9247C234.83 81.0668 235.208 81.2976 235.549 81.6172C235.89 81.9332 236.162 82.3523 236.364 82.8743C236.567 83.3963 236.668 84.0391 236.668 84.8026V85.3352H230.361V84.2486H235.39C235.39 83.7869 235.297 83.375 235.113 83.0128C234.931 82.6506 234.672 82.3647 234.335 82.1552C234.001 81.9457 233.607 81.8409 233.152 81.8409C232.652 81.8409 232.218 81.9652 231.853 82.2138C231.49 82.4588 231.212 82.7784 231.016 83.1726C230.821 83.5668 230.723 83.9893 230.723 84.4403V85.1648C230.723 85.7827 230.83 86.3065 231.043 86.7362C231.26 87.1623 231.56 87.4872 231.943 87.7109C232.327 87.9311 232.772 88.0412 233.28 88.0412C233.61 88.0412 233.909 87.995 234.175 87.9027C234.445 87.8068 234.678 87.6648 234.873 87.4766C235.068 87.2848 235.219 87.0469 235.326 86.7628L236.54 87.1037C236.412 87.5156 236.197 87.8778 235.896 88.1903C235.594 88.4993 235.221 88.7408 234.777 88.9148C234.333 89.0852 233.834 89.1705 233.28 89.1705ZM240.988 89.1918C240.469 89.1918 239.999 89.0941 239.576 88.8988C239.154 88.6999 238.818 88.4141 238.57 88.0412C238.321 87.6648 238.197 87.2102 238.197 86.6776C238.197 86.2088 238.289 85.8288 238.474 85.5376C238.658 85.2429 238.905 85.0121 239.214 84.8452C239.523 84.6783 239.864 84.554 240.237 84.4723C240.613 84.3871 240.991 84.3196 241.371 84.2699C241.869 84.206 242.272 84.158 242.581 84.1261C242.893 84.0906 243.12 84.032 243.262 83.9503C243.408 83.8686 243.481 83.7266 243.481 83.5241V83.4815C243.481 82.956 243.337 82.5476 243.049 82.2564C242.765 81.9652 242.334 81.8196 241.755 81.8196C241.155 81.8196 240.684 81.951 240.343 82.2138C240.002 82.4766 239.763 82.7571 239.624 83.0554L238.431 82.6293C238.644 82.1321 238.928 81.745 239.283 81.468C239.642 81.1875 240.033 80.9922 240.455 80.8821C240.881 80.7685 241.3 80.7116 241.712 80.7116C241.975 80.7116 242.277 80.7436 242.618 80.8075C242.962 80.8679 243.294 80.994 243.614 81.1857C243.937 81.3775 244.205 81.6669 244.418 82.054C244.631 82.4411 244.738 82.9595 244.738 83.6094V89H243.481V87.892H243.417C243.332 88.0696 243.19 88.2596 242.991 88.462C242.792 88.6644 242.527 88.8366 242.197 88.9787C241.867 89.1207 241.464 89.1918 240.988 89.1918ZM241.18 88.0625C241.677 88.0625 242.096 87.9648 242.437 87.7695C242.781 87.5742 243.04 87.3221 243.214 87.0131C243.392 86.7042 243.481 86.3793 243.481 86.0384V84.8878C243.428 84.9517 243.31 85.0103 243.129 85.0636C242.952 85.1133 242.746 85.1577 242.511 85.1967C242.281 85.2322 242.055 85.2642 241.835 85.2926C241.618 85.3175 241.442 85.3388 241.308 85.3565C240.981 85.3991 240.675 85.4684 240.391 85.5643C240.111 85.6566 239.884 85.7969 239.71 85.9851C239.539 86.1697 239.454 86.4219 239.454 86.7415C239.454 87.1783 239.615 87.5085 239.939 87.7322C240.265 87.9524 240.679 88.0625 241.18 88.0625ZM250.591 80.8182V81.8835H246.351V80.8182H250.591ZM247.586 78.858H248.843V86.6562C248.843 87.0114 248.895 87.2777 248.998 87.4553C249.104 87.6293 249.239 87.7464 249.403 87.8068C249.57 87.8636 249.745 87.892 249.93 87.892C250.069 87.892 250.182 87.8849 250.271 87.8707C250.36 87.853 250.431 87.8388 250.484 87.8281L250.74 88.9574C250.655 88.9893 250.536 89.0213 250.383 89.0533C250.23 89.0888 250.037 89.1065 249.802 89.1065C249.447 89.1065 249.099 89.0302 248.758 88.8775C248.421 88.7248 248.14 88.4922 247.917 88.1797C247.696 87.8672 247.586 87.473 247.586 86.9972V78.858ZM255.824 89.1705C255.036 89.1705 254.356 88.9964 253.784 88.6484C253.216 88.2969 252.777 87.8068 252.468 87.1783C252.163 86.5462 252.01 85.8111 252.01 84.973C252.01 84.1349 252.163 83.3963 252.468 82.7571C252.777 82.1143 253.207 81.6136 253.757 81.255C254.311 80.8928 254.958 80.7116 255.696 80.7116C256.122 80.7116 256.543 80.7827 256.959 80.9247C257.374 81.0668 257.752 81.2976 258.093 81.6172C258.434 81.9332 258.706 82.3523 258.908 82.8743C259.111 83.3963 259.212 84.0391 259.212 84.8026V85.3352H252.905V84.2486H257.934C257.934 83.7869 257.841 83.375 257.657 83.0128C257.475 82.6506 257.216 82.3647 256.879 82.1552C256.545 81.9457 256.151 81.8409 255.696 81.8409C255.196 81.8409 254.762 81.9652 254.397 82.2138C254.034 82.4588 253.756 82.7784 253.56 83.1726C253.365 83.5668 253.267 83.9893 253.267 84.4403V85.1648C253.267 85.7827 253.374 86.3065 253.587 86.7362C253.804 87.1623 254.104 87.4872 254.487 87.7109C254.871 87.9311 255.316 88.0412 255.824 88.0412C256.154 88.0412 256.453 87.995 256.719 87.9027C256.989 87.8068 257.222 87.6648 257.417 87.4766C257.612 87.2848 257.763 87.0469 257.87 86.7628L259.084 87.1037C258.956 87.5156 258.741 87.8778 258.44 88.1903C258.138 88.4993 257.765 88.7408 257.321 88.9148C256.877 89.0852 256.378 89.1705 255.824 89.1705ZM267.751 89.1918C267.232 89.1918 266.762 89.0941 266.339 88.8988C265.916 88.6999 265.581 88.4141 265.332 88.0412C265.084 87.6648 264.959 87.2102 264.959 86.6776C264.959 86.2088 265.052 85.8288 265.236 85.5376C265.421 85.2429 265.668 85.0121 265.977 84.8452C266.286 84.6783 266.627 84.554 267 84.4723C267.376 84.3871 267.754 84.3196 268.134 84.2699C268.631 84.206 269.034 84.158 269.343 84.1261C269.656 84.0906 269.883 84.032 270.025 83.9503C270.171 83.8686 270.244 83.7266 270.244 83.5241V83.4815C270.244 82.956 270.1 82.5476 269.812 82.2564C269.528 81.9652 269.097 81.8196 268.518 81.8196C267.918 81.8196 267.447 81.951 267.106 82.2138C266.765 82.4766 266.525 82.7571 266.387 83.0554L265.194 82.6293C265.407 82.1321 265.691 81.745 266.046 81.468C266.405 81.1875 266.795 80.9922 267.218 80.8821C267.644 80.7685 268.063 80.7116 268.475 80.7116C268.738 80.7116 269.04 80.7436 269.381 80.8075C269.725 80.8679 270.057 80.994 270.377 81.1857C270.7 81.3775 270.968 81.6669 271.181 82.054C271.394 82.4411 271.501 82.9595 271.501 83.6094V89H270.244V87.892H270.18C270.094 88.0696 269.952 88.2596 269.753 88.462C269.555 88.6644 269.29 88.8366 268.96 88.9787C268.63 89.1207 268.226 89.1918 267.751 89.1918ZM267.942 88.0625C268.44 88.0625 268.859 87.9648 269.199 87.7695C269.544 87.5742 269.803 87.3221 269.977 87.0131C270.155 86.7042 270.244 86.3793 270.244 86.0384V84.8878C270.19 84.9517 270.073 85.0103 269.892 85.0636C269.714 85.1133 269.508 85.1577 269.274 85.1967C269.043 85.2322 268.818 85.2642 268.598 85.2926C268.381 85.3175 268.205 85.3388 268.07 85.3565C267.744 85.3991 267.438 85.4684 267.154 85.5643C266.873 85.6566 266.646 85.7969 266.472 85.9851C266.302 86.1697 266.217 86.4219 266.217 86.7415C266.217 87.1783 266.378 87.5085 266.701 87.7322C267.028 87.9524 267.442 88.0625 267.942 88.0625ZM283.809 82.6506L282.68 82.9702C282.609 82.782 282.504 82.5991 282.366 82.4215C282.231 82.2404 282.046 82.0913 281.812 81.9741C281.577 81.8569 281.277 81.7983 280.912 81.7983C280.411 81.7983 279.994 81.9137 279.66 82.1445C279.33 82.3718 279.164 82.6612 279.164 83.0128C279.164 83.3253 279.278 83.5721 279.505 83.7532C279.733 83.9343 280.088 84.0852 280.571 84.206L281.785 84.5043C282.517 84.6818 283.062 84.9535 283.42 85.3192C283.779 85.6815 283.958 86.1484 283.958 86.7202C283.958 87.1889 283.824 87.608 283.554 87.9773C283.287 88.3466 282.914 88.6378 282.435 88.8509C281.956 89.0639 281.398 89.1705 280.762 89.1705C279.928 89.1705 279.237 88.9893 278.69 88.6271C278.143 88.2649 277.797 87.7358 277.652 87.0398L278.845 86.7415C278.958 87.1818 279.173 87.5121 279.489 87.7322C279.809 87.9524 280.226 88.0625 280.741 88.0625C281.327 88.0625 281.792 87.9382 282.137 87.6896C282.485 87.4375 282.659 87.1357 282.659 86.7841C282.659 86.5 282.559 86.2621 282.36 86.0703C282.162 85.875 281.856 85.7294 281.444 85.6335L280.081 85.3139C279.331 85.1364 278.781 84.8612 278.429 84.4883C278.081 84.1119 277.907 83.6413 277.907 83.0767C277.907 82.6151 278.037 82.2067 278.296 81.8516C278.559 81.4964 278.916 81.2177 279.367 81.0153C279.821 80.8129 280.336 80.7116 280.912 80.7116C281.721 80.7116 282.357 80.8892 282.819 81.2443C283.284 81.5994 283.614 82.0682 283.809 82.6506ZM289.409 80.8182V81.8835H285.169V80.8182H289.409ZM286.405 78.858H287.662V86.6562C287.662 87.0114 287.713 87.2777 287.816 87.4553C287.923 87.6293 288.058 87.7464 288.221 87.8068C288.388 87.8636 288.564 87.892 288.748 87.892C288.887 87.892 289.001 87.8849 289.089 87.8707C289.178 87.853 289.249 87.8388 289.302 87.8281L289.558 88.9574C289.473 88.9893 289.354 89.0213 289.201 89.0533C289.049 89.0888 288.855 89.1065 288.621 89.1065C288.266 89.1065 287.918 89.0302 287.577 88.8775C287.239 88.7248 286.959 88.4922 286.735 88.1797C286.515 87.8672 286.405 87.473 286.405 86.9972V78.858ZM291.3 89V80.8182H292.514V82.054H292.6C292.749 81.6491 293.019 81.3207 293.409 81.0685C293.8 80.8164 294.24 80.6903 294.73 80.6903C294.823 80.6903 294.938 80.6921 295.077 80.6957C295.215 80.6992 295.32 80.7045 295.391 80.7116V81.9901C295.348 81.9794 295.251 81.9634 295.098 81.9421C294.949 81.9173 294.791 81.9048 294.624 81.9048C294.226 81.9048 293.871 81.9883 293.559 82.1552C293.25 82.3185 293.005 82.5458 292.823 82.837C292.646 83.1246 292.557 83.4531 292.557 83.8224V89H291.3ZM299.956 89.1705C299.217 89.1705 298.569 88.9947 298.012 88.6431C297.458 88.2915 297.024 87.7997 296.712 87.1676C296.403 86.5355 296.248 85.7969 296.248 84.9517C296.248 84.0994 296.403 83.3555 296.712 82.7198C297.024 82.0842 297.458 81.5906 298.012 81.239C298.569 80.8874 299.217 80.7116 299.956 80.7116C300.695 80.7116 301.341 80.8874 301.895 81.239C302.452 81.5906 302.886 82.0842 303.195 82.7198C303.507 83.3555 303.663 84.0994 303.663 84.9517C303.663 85.7969 303.507 86.5355 303.195 87.1676C302.886 87.7997 302.452 88.2915 301.895 88.6431C301.341 88.9947 300.695 89.1705 299.956 89.1705ZM299.956 88.0412C300.517 88.0412 300.979 87.8974 301.341 87.6097C301.703 87.3221 301.971 86.9439 302.145 86.4751C302.319 86.0064 302.406 85.4986 302.406 84.9517C302.406 84.4048 302.319 83.8952 302.145 83.4229C301.971 82.9506 301.703 82.5689 301.341 82.2777C300.979 81.9865 300.517 81.8409 299.956 81.8409C299.395 81.8409 298.933 81.9865 298.571 82.2777C298.209 82.5689 297.941 82.9506 297.767 83.4229C297.593 83.8952 297.506 84.4048 297.506 84.9517C297.506 85.4986 297.593 86.0064 297.767 86.4751C297.941 86.9439 298.209 87.3221 298.571 87.6097C298.933 87.8974 299.395 88.0412 299.956 88.0412ZM306.839 84.0781V89H305.582V80.8182H306.797V82.0966H306.903C307.095 81.6811 307.386 81.3473 307.777 81.0952C308.167 80.8395 308.672 80.7116 309.29 80.7116C309.844 80.7116 310.328 80.8253 310.744 81.0526C311.159 81.2763 311.482 81.6172 311.713 82.0753C311.944 82.5298 312.059 83.1051 312.059 83.8011V89H310.802V83.8864C310.802 83.2436 310.635 82.7429 310.302 82.3842C309.968 82.022 309.51 81.8409 308.927 81.8409C308.526 81.8409 308.167 81.9279 307.851 82.1019C307.539 82.2759 307.292 82.5298 307.111 82.8636C306.93 83.1974 306.839 83.6023 306.839 84.0781ZM317.659 92.2386C317.052 92.2386 316.53 92.1605 316.093 92.0043C315.656 91.8516 315.292 91.6491 315.001 91.397C314.714 91.1484 314.484 90.8821 314.314 90.598L315.315 89.8949C315.429 90.044 315.573 90.2145 315.747 90.4062C315.921 90.6016 316.159 90.7702 316.461 90.9123C316.766 91.0579 317.166 91.1307 317.659 91.1307C318.32 91.1307 318.865 90.9709 319.294 90.6513C319.724 90.3317 319.939 89.831 319.939 89.1491V87.4872H319.832C319.74 87.6364 319.609 87.821 319.438 88.0412C319.271 88.2578 319.03 88.4513 318.714 88.6218C318.401 88.7887 317.979 88.8722 317.446 88.8722C316.786 88.8722 316.193 88.7159 315.667 88.4034C315.145 88.0909 314.731 87.6364 314.426 87.0398C314.124 86.4432 313.973 85.7187 313.973 84.8665C313.973 84.0284 314.12 83.2987 314.415 82.6772C314.71 82.0522 315.12 81.5692 315.646 81.2283C316.171 80.8839 316.778 80.7116 317.467 80.7116C318 80.7116 318.423 80.8004 318.735 80.978C319.051 81.152 319.293 81.3509 319.46 81.5746C319.63 81.7947 319.761 81.9759 319.854 82.1179H319.982V80.8182H321.196V89.2344C321.196 89.9375 321.036 90.5092 320.717 90.9496C320.401 91.3935 319.975 91.7184 319.438 91.9244C318.906 92.1339 318.313 92.2386 317.659 92.2386ZM317.617 87.7429C318.121 87.7429 318.547 87.6275 318.895 87.3967C319.243 87.1658 319.508 86.8338 319.689 86.4006C319.87 85.9673 319.96 85.4489 319.96 84.8452C319.96 84.2557 319.872 83.7354 319.694 83.2844C319.516 82.8335 319.254 82.4801 318.906 82.2244C318.558 81.9687 318.128 81.8409 317.617 81.8409C317.084 81.8409 316.64 81.9759 316.285 82.2457C315.933 82.5156 315.669 82.8778 315.491 83.3324C315.317 83.7869 315.23 84.2912 315.23 84.8452C315.23 85.4134 315.319 85.9158 315.497 86.3526C315.678 86.7859 315.944 87.1268 316.296 87.3754C316.651 87.6204 317.091 87.7429 317.617 87.7429ZM330.124 89.1918C329.605 89.1918 329.135 89.0941 328.712 88.8988C328.29 88.6999 327.954 88.4141 327.705 88.0412C327.457 87.6648 327.332 87.2102 327.332 86.6776C327.332 86.2088 327.425 85.8288 327.609 85.5376C327.794 85.2429 328.041 85.0121 328.35 84.8452C328.659 84.6783 329 84.554 329.373 84.4723C329.749 84.3871 330.127 84.3196 330.507 84.2699C331.004 84.206 331.407 84.158 331.716 84.1261C332.029 84.0906 332.256 84.032 332.398 83.9503C332.544 83.8686 332.617 83.7266 332.617 83.5241V83.4815C332.617 82.956 332.473 82.5476 332.185 82.2564C331.901 81.9652 331.47 81.8196 330.891 81.8196C330.291 81.8196 329.82 81.951 329.479 82.2138C329.138 82.4766 328.899 82.7571 328.76 83.0554L327.567 82.6293C327.78 82.1321 328.064 81.745 328.419 81.468C328.778 81.1875 329.168 80.9922 329.591 80.8821C330.017 80.7685 330.436 80.7116 330.848 80.7116C331.111 80.7116 331.413 80.7436 331.754 80.8075C332.098 80.8679 332.43 80.994 332.75 81.1857C333.073 81.3775 333.341 81.6669 333.554 82.054C333.767 82.4411 333.874 82.9595 333.874 83.6094V89H332.617V87.892H332.553C332.467 88.0696 332.325 88.2596 332.127 88.462C331.928 88.6644 331.663 88.8366 331.333 88.9787C331.003 89.1207 330.6 89.1918 330.124 89.1918ZM330.315 88.0625C330.813 88.0625 331.232 87.9648 331.573 87.7695C331.917 87.5742 332.176 87.3221 332.35 87.0131C332.528 86.7042 332.617 86.3793 332.617 86.0384V84.8878C332.563 84.9517 332.446 85.0103 332.265 85.0636C332.087 85.1133 331.881 85.1577 331.647 85.1967C331.416 85.2322 331.191 85.2642 330.971 85.2926C330.754 85.3175 330.578 85.3388 330.443 85.3565C330.117 85.3991 329.811 85.4684 329.527 85.5643C329.247 85.6566 329.019 85.7969 328.845 85.9851C328.675 86.1697 328.59 86.4219 328.59 86.7415C328.59 87.1783 328.751 87.5085 329.074 87.7322C329.401 87.9524 329.815 88.0625 330.315 88.0625ZM337.425 84.0781V89H336.168V80.8182H337.383V82.0966H337.489C337.681 81.6811 337.972 81.3473 338.363 81.0952C338.753 80.8395 339.258 80.7116 339.876 80.7116C340.43 80.7116 340.914 80.8253 341.33 81.0526C341.745 81.2763 342.068 81.6172 342.299 82.0753C342.53 82.5298 342.645 83.1051 342.645 83.8011V89H341.388V83.8864C341.388 83.2436 341.221 82.7429 340.888 82.3842C340.554 82.022 340.096 81.8409 339.513 81.8409C339.112 81.8409 338.753 81.9279 338.437 82.1019C338.125 82.2759 337.878 82.5298 337.697 82.8636C337.516 83.1974 337.425 83.6023 337.425 84.0781ZM348.032 89.1705C347.35 89.1705 346.748 88.9982 346.226 88.6538C345.704 88.3058 345.296 87.8157 345.001 87.1836C344.706 86.5479 344.559 85.7969 344.559 84.9304C344.559 84.071 344.706 83.3253 345.001 82.6932C345.296 82.0611 345.706 81.5728 346.232 81.2283C346.757 80.8839 347.364 80.7116 348.053 80.7116C348.586 80.7116 349.007 80.8004 349.316 80.978C349.628 81.152 349.866 81.3509 350.03 81.5746C350.196 81.7947 350.326 81.9759 350.418 82.1179H350.525V78.0909H351.782V89H350.568V87.7429H350.418C350.326 87.892 350.195 88.0803 350.024 88.3075C349.854 88.5312 349.611 88.7319 349.294 88.9094C348.978 89.0835 348.558 89.1705 348.032 89.1705ZM348.203 88.0412C348.707 88.0412 349.133 87.9098 349.481 87.647C349.829 87.3807 350.093 87.0131 350.275 86.5444C350.456 86.0721 350.546 85.527 350.546 84.9091C350.546 84.2983 350.457 83.7638 350.28 83.3058C350.102 82.8441 349.84 82.4854 349.492 82.2298C349.144 81.9705 348.714 81.8409 348.203 81.8409C347.67 81.8409 347.226 81.9776 346.871 82.2511C346.519 82.521 346.255 82.8885 346.077 83.3537C345.903 83.8153 345.816 84.3338 345.816 84.9091C345.816 85.4915 345.905 86.0206 346.082 86.4964C346.264 86.9687 346.53 87.3452 346.881 87.6257C347.237 87.9027 347.677 88.0412 348.203 88.0412ZM364.273 82.6506L363.144 82.9702C363.073 82.782 362.968 82.5991 362.83 82.4215C362.695 82.2404 362.51 82.0913 362.276 81.9741C362.041 81.8569 361.741 81.7983 361.375 81.7983C360.875 81.7983 360.457 81.9137 360.124 82.1445C359.793 82.3718 359.628 82.6612 359.628 83.0128C359.628 83.3253 359.742 83.5721 359.969 83.7532C360.196 83.9343 360.552 84.0852 361.035 84.206L362.249 84.5043C362.981 84.6818 363.526 84.9535 363.884 85.3192C364.243 85.6815 364.422 86.1484 364.422 86.7202C364.422 87.1889 364.287 87.608 364.017 87.9773C363.751 88.3466 363.378 88.6378 362.899 88.8509C362.419 89.0639 361.862 89.1705 361.226 89.1705C360.392 89.1705 359.701 88.9893 359.154 88.6271C358.607 88.2649 358.261 87.7358 358.116 87.0398L359.309 86.7415C359.422 87.1818 359.637 87.5121 359.953 87.7322C360.273 87.9524 360.69 88.0625 361.205 88.0625C361.791 88.0625 362.256 87.9382 362.601 87.6896C362.949 87.4375 363.123 87.1357 363.123 86.7841C363.123 86.5 363.023 86.2621 362.824 86.0703C362.625 85.875 362.32 85.7294 361.908 85.6335L360.544 85.3139C359.795 85.1364 359.245 84.8612 358.893 84.4883C358.545 84.1119 358.371 83.6413 358.371 83.0767C358.371 82.6151 358.501 82.2067 358.76 81.8516C359.023 81.4964 359.38 81.2177 359.831 81.0153C360.285 80.8129 360.8 80.7116 361.375 80.7116C362.185 80.7116 362.821 80.8892 363.282 81.2443C363.748 81.5994 364.078 82.0682 364.273 82.6506ZM369.745 89.1705C368.957 89.1705 368.277 88.9964 367.705 88.6484C367.137 88.2969 366.698 87.8068 366.389 87.1783C366.084 86.5462 365.931 85.8111 365.931 84.973C365.931 84.1349 366.084 83.3963 366.389 82.7571C366.698 82.1143 367.128 81.6136 367.678 81.255C368.232 80.8928 368.879 80.7116 369.617 80.7116C370.043 80.7116 370.464 80.7827 370.88 80.9247C371.295 81.0668 371.673 81.2976 372.014 81.6172C372.355 81.9332 372.627 82.3523 372.829 82.8743C373.032 83.3963 373.133 84.0391 373.133 84.8026V85.3352H366.826V84.2486H371.854C371.854 83.7869 371.762 83.375 371.577 83.0128C371.396 82.6506 371.137 82.3647 370.8 82.1552C370.466 81.9457 370.072 81.8409 369.617 81.8409C369.116 81.8409 368.683 81.9652 368.317 82.2138C367.955 82.4588 367.676 82.7784 367.481 83.1726C367.286 83.5668 367.188 83.9893 367.188 84.4403V85.1648C367.188 85.7827 367.295 86.3065 367.508 86.7362C367.724 87.1623 368.025 87.4872 368.408 87.7109C368.792 87.9311 369.237 88.0412 369.745 88.0412C370.075 88.0412 370.374 87.995 370.64 87.9027C370.91 87.8068 371.142 87.6648 371.338 87.4766C371.533 87.2848 371.684 87.0469 371.79 86.7628L373.005 87.1037C372.877 87.5156 372.662 87.8778 372.36 88.1903C372.059 88.4993 371.686 88.7408 371.242 88.9148C370.798 89.0852 370.299 89.1705 369.745 89.1705ZM378.369 89.1705C377.602 89.1705 376.941 88.9893 376.387 88.6271C375.833 88.2649 375.407 87.766 375.109 87.1303C374.811 86.4947 374.662 85.7685 374.662 84.9517C374.662 84.1207 374.814 83.3874 375.12 82.7518C375.429 82.1126 375.858 81.6136 376.409 81.255C376.963 80.8928 377.609 80.7116 378.348 80.7116C378.923 80.7116 379.441 80.8182 379.903 81.0312C380.365 81.2443 380.743 81.5426 381.038 81.9261C381.332 82.3097 381.515 82.7571 381.586 83.2685H380.329C380.233 82.8956 380.02 82.5653 379.69 82.2777C379.363 81.9865 378.923 81.8409 378.369 81.8409C377.879 81.8409 377.449 81.9687 377.08 82.2244C376.714 82.4766 376.428 82.8335 376.222 83.2951C376.02 83.7532 375.919 84.2912 375.919 84.9091C375.919 85.5412 376.018 86.0916 376.217 86.5604C376.419 87.0291 376.703 87.3931 377.069 87.6523C377.439 87.9116 377.872 88.0412 378.369 88.0412C378.696 88.0412 378.992 87.9844 379.259 87.8707C379.525 87.7571 379.75 87.5938 379.935 87.3807C380.12 87.1676 380.251 86.9119 380.329 86.6136H381.586C381.515 87.0966 381.339 87.5316 381.059 87.9187C380.782 88.3022 380.414 88.6076 379.956 88.8349C379.502 89.0586 378.973 89.1705 378.369 89.1705ZM388.58 85.6548V80.8182H389.837V89H388.58V87.6151H388.495C388.303 88.0305 388.005 88.3839 387.6 88.6751C387.195 88.9627 386.684 89.1065 386.066 89.1065C385.555 89.1065 385.1 88.9947 384.702 88.771C384.305 88.5437 383.992 88.2028 383.765 87.7482C383.538 87.2901 383.424 86.7131 383.424 86.017V80.8182H384.681V85.9318C384.681 86.5284 384.848 87.0043 385.182 87.3594C385.519 87.7145 385.949 87.892 386.471 87.892C386.783 87.892 387.101 87.8121 387.424 87.6523C387.751 87.4925 388.025 87.2475 388.245 86.9173C388.468 86.587 388.58 86.1662 388.58 85.6548ZM392.14 89V80.8182H393.354V82.054H393.44C393.589 81.6491 393.859 81.3207 394.249 81.0685C394.64 80.8164 395.08 80.6903 395.57 80.6903C395.663 80.6903 395.778 80.6921 395.916 80.6957C396.055 80.6992 396.16 80.7045 396.231 80.7116V81.9901C396.188 81.9794 396.09 81.9634 395.938 81.9421C395.789 81.9173 395.631 81.9048 395.464 81.9048C395.066 81.9048 394.711 81.9883 394.398 82.1552C394.089 82.3185 393.844 82.5458 393.663 82.837C393.486 83.1246 393.397 83.4531 393.397 83.8224V89H392.14ZM400.902 89.1705C400.114 89.1705 399.434 88.9964 398.862 88.6484C398.294 88.2969 397.855 87.8068 397.546 87.1783C397.241 86.5462 397.088 85.8111 397.088 84.973C397.088 84.1349 397.241 83.3963 397.546 82.7571C397.855 82.1143 398.285 81.6136 398.835 81.255C399.389 80.8928 400.036 80.7116 400.774 80.7116C401.201 80.7116 401.621 80.7827 402.037 80.9247C402.452 81.0668 402.831 81.2976 403.171 81.6172C403.512 81.9332 403.784 82.3523 403.986 82.8743C404.189 83.3963 404.29 84.0391 404.29 84.8026V85.3352H397.983V84.2486H403.012C403.012 83.7869 402.919 83.375 402.735 83.0128C402.554 82.6506 402.294 82.3647 401.957 82.1552C401.623 81.9457 401.229 81.8409 400.774 81.8409C400.274 81.8409 399.84 81.9652 399.475 82.2138C399.112 82.4588 398.834 82.7784 398.638 83.1726C398.443 83.5668 398.345 83.9893 398.345 84.4403V85.1648C398.345 85.7827 398.452 86.3065 398.665 86.7362C398.882 87.1623 399.182 87.4872 399.565 87.7109C399.949 87.9311 400.394 88.0412 400.902 88.0412C401.233 88.0412 401.531 87.995 401.797 87.9027C402.067 87.8068 402.3 87.6648 402.495 87.4766C402.69 87.2848 402.841 87.0469 402.948 86.7628L404.162 87.1037C404.034 87.5156 403.82 87.8778 403.518 88.1903C403.216 88.4993 402.843 88.7408 402.399 88.9148C401.955 89.0852 401.456 89.1705 400.902 89.1705ZM410.421 92.0682V80.8182H411.636V82.1179H411.785C411.877 81.9759 412.005 81.7947 412.168 81.5746C412.335 81.3509 412.573 81.152 412.882 80.978C413.195 80.8004 413.617 80.7116 414.15 80.7116C414.839 80.7116 415.446 80.8839 415.972 81.2283C416.497 81.5728 416.907 82.0611 417.202 82.6932C417.497 83.3253 417.644 84.071 417.644 84.9304C417.644 85.7969 417.497 86.5479 417.202 87.1836C416.907 87.8157 416.499 88.3058 415.977 88.6538C415.455 88.9982 414.853 89.1705 414.171 89.1705C413.646 89.1705 413.225 89.0835 412.909 88.9094C412.593 88.7319 412.349 88.5312 412.179 88.3075C412.008 88.0803 411.877 87.892 411.785 87.7429H411.678V92.0682H410.421ZM411.657 84.9091C411.657 85.527 411.747 86.0721 411.929 86.5444C412.11 87.0131 412.374 87.3807 412.722 87.647C413.07 87.9098 413.496 88.0412 414.001 88.0412C414.526 88.0412 414.965 87.9027 415.316 87.6257C415.671 87.3452 415.938 86.9687 416.115 86.4964C416.296 86.0206 416.387 85.4915 416.387 84.9091C416.387 84.3338 416.298 83.8153 416.121 83.3537C415.947 82.8885 415.682 82.521 415.327 82.2511C414.975 81.9776 414.533 81.8409 414.001 81.8409C413.489 81.8409 413.06 81.9705 412.712 82.2298C412.364 82.4854 412.101 82.8441 411.923 83.3058C411.746 83.7638 411.657 84.2983 411.657 84.9091ZM421.969 89.1918C421.451 89.1918 420.98 89.0941 420.558 88.8988C420.135 88.6999 419.8 88.4141 419.551 88.0412C419.302 87.6648 419.178 87.2102 419.178 86.6776C419.178 86.2088 419.271 85.8288 419.455 85.5376C419.64 85.2429 419.887 85.0121 420.196 84.8452C420.505 84.6783 420.845 84.554 421.218 84.4723C421.595 84.3871 421.973 84.3196 422.353 84.2699C422.85 84.206 423.253 84.158 423.562 84.1261C423.875 84.0906 424.102 84.032 424.244 83.9503C424.389 83.8686 424.462 83.7266 424.462 83.5241V83.4815C424.462 82.956 424.318 82.5476 424.031 82.2564C423.747 81.9652 423.315 81.8196 422.736 81.8196C422.136 81.8196 421.666 81.951 421.325 82.2138C420.984 82.4766 420.744 82.7571 420.606 83.0554L419.413 82.6293C419.626 82.1321 419.91 81.745 420.265 81.468C420.623 81.1875 421.014 80.9922 421.437 80.8821C421.863 80.7685 422.282 80.7116 422.694 80.7116C422.957 80.7116 423.258 80.7436 423.599 80.8075C423.944 80.8679 424.276 80.994 424.595 81.1857C424.919 81.3775 425.187 81.6669 425.4 82.054C425.613 82.4411 425.719 82.9595 425.719 83.6094V89H424.462V87.892H424.398C424.313 88.0696 424.171 88.2596 423.972 88.462C423.773 88.6644 423.509 88.8366 423.179 88.9787C422.848 89.1207 422.445 89.1918 421.969 89.1918ZM422.161 88.0625C422.658 88.0625 423.077 87.9648 423.418 87.7695C423.763 87.5742 424.022 87.3221 424.196 87.0131C424.373 86.7042 424.462 86.3793 424.462 86.0384V84.8878C424.409 84.9517 424.292 85.0103 424.111 85.0636C423.933 85.1133 423.727 85.1577 423.493 85.1967C423.262 85.2322 423.036 85.2642 422.816 85.2926C422.6 85.3175 422.424 85.3388 422.289 85.3565C421.962 85.3991 421.657 85.4684 421.373 85.5643C421.092 85.6566 420.865 85.7969 420.691 85.9851C420.521 86.1697 420.435 86.4219 420.435 86.7415C420.435 87.1783 420.597 87.5085 420.92 87.7322C421.247 87.9524 421.66 88.0625 422.161 88.0625ZM433.809 82.6506L432.68 82.9702C432.609 82.782 432.504 82.5991 432.366 82.4215C432.231 82.2404 432.046 82.0913 431.812 81.9741C431.577 81.8569 431.277 81.7983 430.912 81.7983C430.411 81.7983 429.994 81.9137 429.66 82.1445C429.33 82.3718 429.164 82.6612 429.164 83.0128C429.164 83.3253 429.278 83.5721 429.505 83.7532C429.733 83.9343 430.088 84.0852 430.571 84.206L431.785 84.5043C432.517 84.6818 433.062 84.9535 433.42 85.3192C433.779 85.6815 433.958 86.1484 433.958 86.7202C433.958 87.1889 433.824 87.608 433.554 87.9773C433.287 88.3466 432.914 88.6378 432.435 88.8509C431.956 89.0639 431.398 89.1705 430.762 89.1705C429.928 89.1705 429.237 88.9893 428.69 88.6271C428.143 88.2649 427.797 87.7358 427.652 87.0398L428.845 86.7415C428.958 87.1818 429.173 87.5121 429.489 87.7322C429.809 87.9524 430.226 88.0625 430.741 88.0625C431.327 88.0625 431.792 87.9382 432.137 87.6896C432.485 87.4375 432.659 87.1357 432.659 86.7841C432.659 86.5 432.559 86.2621 432.36 86.0703C432.162 85.875 431.856 85.7294 431.444 85.6335L430.081 85.3139C429.331 85.1364 428.781 84.8612 428.429 84.4883C428.081 84.1119 427.907 83.6413 427.907 83.0767C427.907 82.6151 428.037 82.2067 428.296 81.8516C428.559 81.4964 428.916 81.2177 429.367 81.0153C429.821 80.8129 430.336 80.7116 430.912 80.7116C431.721 80.7116 432.357 80.8892 432.819 81.2443C433.284 81.5994 433.614 82.0682 433.809 82.6506ZM441.646 82.6506L440.517 82.9702C440.446 82.782 440.341 82.5991 440.203 82.4215C440.068 82.2404 439.883 82.0913 439.649 81.9741C439.414 81.8569 439.114 81.7983 438.748 81.7983C438.248 81.7983 437.831 81.9137 437.497 82.1445C437.166 82.3718 437.001 82.6612 437.001 83.0128C437.001 83.3253 437.115 83.5721 437.342 83.7532C437.57 83.9343 437.925 84.0852 438.408 84.206L439.622 84.5043C440.354 84.6818 440.899 84.9535 441.257 85.3192C441.616 85.6815 441.795 86.1484 441.795 86.7202C441.795 87.1889 441.66 87.608 441.391 87.9773C441.124 88.3466 440.751 88.6378 440.272 88.8509C439.793 89.0639 439.235 89.1705 438.599 89.1705C437.765 89.1705 437.074 88.9893 436.527 88.6271C435.98 88.2649 435.634 87.7358 435.489 87.0398L436.682 86.7415C436.795 87.1818 437.01 87.5121 437.326 87.7322C437.646 87.9524 438.063 88.0625 438.578 88.0625C439.164 88.0625 439.629 87.9382 439.974 87.6896C440.322 87.4375 440.496 87.1357 440.496 86.7841C440.496 86.5 440.396 86.2621 440.197 86.0703C439.998 85.875 439.693 85.7294 439.281 85.6335L437.918 85.3139C437.168 85.1364 436.618 84.8612 436.266 84.4883C435.918 84.1119 435.744 83.6413 435.744 83.0767C435.744 82.6151 435.874 82.2067 436.133 81.8516C436.396 81.4964 436.753 81.2177 437.204 81.0153C437.658 80.8129 438.173 80.7116 438.748 80.7116C439.558 80.7116 440.194 80.8892 440.655 81.2443C441.121 81.5994 441.451 82.0682 441.646 82.6506ZM445.541 89L443.048 80.8182H444.369L446.138 87.0824H446.223L447.97 80.8182H449.313L451.039 87.0611H451.124L452.892 80.8182H454.213L451.72 89H450.485L448.695 82.7145H448.567L446.777 89H445.541ZM458.921 89.1705C458.182 89.1705 457.534 88.9947 456.976 88.6431C456.422 88.2915 455.989 87.7997 455.677 87.1676C455.368 86.5355 455.213 85.7969 455.213 84.9517C455.213 84.0994 455.368 83.3555 455.677 82.7198C455.989 82.0842 456.422 81.5906 456.976 81.239C457.534 80.8874 458.182 80.7116 458.921 80.7116C459.659 80.7116 460.306 80.8874 460.86 81.239C461.417 81.5906 461.85 82.0842 462.159 82.7198C462.472 83.3555 462.628 84.0994 462.628 84.9517C462.628 85.7969 462.472 86.5355 462.159 87.1676C461.85 87.7997 461.417 88.2915 460.86 88.6431C460.306 88.9947 459.659 89.1705 458.921 89.1705ZM458.921 88.0412C459.482 88.0412 459.943 87.8974 460.306 87.6097C460.668 87.3221 460.936 86.9439 461.11 86.4751C461.284 86.0064 461.371 85.4986 461.371 84.9517C461.371 84.4048 461.284 83.8952 461.11 83.4229C460.936 82.9506 460.668 82.5689 460.306 82.2777C459.943 81.9865 459.482 81.8409 458.921 81.8409C458.36 81.8409 457.898 81.9865 457.536 82.2777C457.174 82.5689 456.905 82.9506 456.731 83.4229C456.557 83.8952 456.47 84.4048 456.47 84.9517C456.47 85.4986 456.557 86.0064 456.731 86.4751C456.905 86.9439 457.174 87.3221 457.536 87.6097C457.898 87.8974 458.36 88.0412 458.921 88.0412ZM464.547 89V80.8182H465.762V82.054H465.847C465.996 81.6491 466.266 81.3207 466.656 81.0685C467.047 80.8164 467.487 80.6903 467.977 80.6903C468.07 80.6903 468.185 80.6921 468.324 80.6957C468.462 80.6992 468.567 80.7045 468.638 80.7116V81.9901C468.595 81.9794 468.498 81.9634 468.345 81.9421C468.196 81.9173 468.038 81.9048 467.871 81.9048C467.473 81.9048 467.118 81.9883 466.806 82.1552C466.497 82.3185 466.252 82.5458 466.07 82.837C465.893 83.1246 465.804 83.4531 465.804 83.8224V89H464.547ZM472.969 89.1705C472.287 89.1705 471.685 88.9982 471.163 88.6538C470.641 88.3058 470.232 87.8157 469.938 87.1836C469.643 86.5479 469.496 85.7969 469.496 84.9304C469.496 84.071 469.643 83.3253 469.938 82.6932C470.232 82.0611 470.643 81.5728 471.168 81.2283C471.694 80.8839 472.301 80.7116 472.99 80.7116C473.523 80.7116 473.943 80.8004 474.252 80.978C474.565 81.152 474.803 81.3509 474.966 81.5746C475.133 81.7947 475.263 81.9759 475.355 82.1179H475.461V78.0909H476.719V89H475.504V87.7429H475.355C475.263 87.892 475.131 88.0803 474.961 88.3075C474.79 88.5312 474.547 88.7319 474.231 88.9094C473.915 89.0835 473.494 89.1705 472.969 89.1705ZM473.139 88.0412C473.643 88.0412 474.069 87.9098 474.417 87.647C474.765 87.3807 475.03 87.0131 475.211 86.5444C475.392 86.0721 475.483 85.527 475.483 84.9091C475.483 84.2983 475.394 83.7638 475.216 83.3058C475.039 82.8441 474.776 82.4854 474.428 82.2298C474.08 81.9705 473.65 81.8409 473.139 81.8409C472.606 81.8409 472.162 81.9776 471.807 82.2511C471.456 82.521 471.191 82.8885 471.014 83.3537C470.84 83.8153 470.753 84.3338 470.753 84.9091C470.753 85.4915 470.841 86.0206 471.019 86.4964C471.2 86.9687 471.466 87.3452 471.818 87.6257C472.173 87.9027 472.613 88.0412 473.139 88.0412ZM480.112 89.0852C479.849 89.0852 479.623 88.9911 479.435 88.8029C479.247 88.6147 479.153 88.3892 479.153 88.1264C479.153 87.8636 479.247 87.6381 479.435 87.4499C479.623 87.2617 479.849 87.1676 480.112 87.1676C480.374 87.1676 480.6 87.2617 480.788 87.4499C480.976 87.6381 481.07 87.8636 481.07 88.1264C481.07 88.3004 481.026 88.4602 480.937 88.6058C480.852 88.7514 480.737 88.8686 480.591 88.9574C480.449 89.0426 480.289 89.0852 480.112 89.0852Z" fill="black" fill-opacity="0.63"/>
<path d="M15 169H485V169C485 174.523 480.523 179 475 179H25C19.4772 179 15 174.523 15 169V169Z" fill="#DDDDDD"/>
<path d="M15 169H373C375.761 169 378 171.239 378 174V174C378 176.761 375.761 179 373 179H25C19.4771 179 15 174.523 15 169V169Z" fill="#27AE60"/>
<path d="M32.128 162.432C30.28 162.432 28.84 162 27.808 161.136C26.8 160.248 26.296 159.108 26.296 157.716C26.296 156.828 26.488 156.012 26.872 155.268C27.28 154.5 27.88 153.84 28.672 153.288C29.464 152.736 30.448 152.316 31.624 152.028C32.8 151.716 34.144 151.56 35.656 151.56C35.848 151.56 36.088 151.56 36.376 151.56C36.664 151.56 36.976 151.572 37.312 151.596C37.648 151.596 37.96 151.62 38.248 151.668L38.356 154.476C38.116 154.452 37.828 154.44 37.492 154.44C37.156 154.416 36.808 154.404 36.448 154.404C36.112 154.38 35.824 154.368 35.584 154.368C34.624 154.368 33.808 154.44 33.136 154.584C32.488 154.728 31.96 154.932 31.552 155.196C31.144 155.436 30.844 155.736 30.652 156.096C30.46 156.432 30.364 156.804 30.364 157.212C30.364 157.596 30.424 157.92 30.544 158.184C30.688 158.448 30.868 158.664 31.084 158.832C31.324 158.976 31.6 159.084 31.912 159.156C32.224 159.228 32.56 159.264 32.92 159.264C33.64 159.264 34.264 159.156 34.792 158.94C35.344 158.7 35.8 158.328 36.16 157.824C36.544 157.32 36.82 156.696 36.988 155.952C37.18 155.184 37.276 154.284 37.276 153.252C37.276 151.86 37.132 150.792 36.844 150.048C36.556 149.304 36.136 148.788 35.584 148.5C35.032 148.188 34.336 148.032 33.496 148.032C32.728 148.032 31.996 148.164 31.3 148.428C30.628 148.668 29.968 149.124 29.32 149.796L27.088 147.348C28.024 146.46 29.068 145.824 30.22 145.44C31.372 145.056 32.524 144.864 33.676 144.864C34.732 144.864 35.716 144.984 36.628 145.224C37.54 145.464 38.332 145.872 39.004 146.448C39.7 147 40.24 147.768 40.624 148.752C41.032 149.712 41.236 150.912 41.236 152.352V162H37.024V160.2C36.712 160.608 36.376 160.956 36.016 161.244C35.656 161.532 35.272 161.76 34.864 161.928C34.456 162.096 34.024 162.216 33.568 162.288C33.112 162.384 32.632 162.432 32.128 162.432ZM44.98 137.844H49.048H49.372V138.168C49.252 138.312 49.168 138.468 49.12 138.636C49.096 138.804 49.084 139.092 49.084 139.5V147.456C49.492 146.856 49.96 146.376 50.488 146.016C51.016 145.632 51.58 145.344 52.18 145.152C52.804 144.96 53.404 144.864 53.98 144.864C55.06 144.864 55.996 145.104 56.788 145.584C57.604 146.04 58.228 146.796 58.66 147.852C59.116 148.884 59.344 150.228 59.344 151.884V162H55.24V151.956C55.24 150.972 55.144 150.192 54.952 149.616C54.76 149.016 54.484 148.596 54.124 148.356C53.788 148.116 53.38 147.996 52.9 147.996C52.492 147.996 52.096 148.056 51.712 148.176C51.328 148.296 50.98 148.488 50.668 148.752C50.356 148.992 50.068 149.292 49.804 149.652C49.564 150.012 49.384 150.42 49.264 150.876C49.144 151.332 49.084 151.836 49.084 152.388V162H44.98V137.844ZM71.764 162.36C70.804 162.36 69.964 162.204 69.244 161.892C68.548 161.58 67.96 161.076 67.48 160.38C67.024 159.684 66.688 158.76 66.472 157.608C66.28 156.456 66.22 155.028 66.292 153.324L66.76 141.3L70.972 140.76L71.296 140.724L71.332 141.048C71.236 141.216 71.14 141.384 71.044 141.552C70.948 141.72 70.888 142.008 70.864 142.416L70.468 147.384L70.648 147.636L70.36 153.252C70.288 154.812 70.336 156.024 70.504 156.888C70.696 157.728 70.972 158.304 71.332 158.616C71.716 158.928 72.172 159.084 72.7 159.084C73.468 159.084 74.152 158.928 74.752 158.616C75.376 158.304 75.952 157.944 76.48 157.536L77.344 160.488C76.528 161.088 75.652 161.556 74.716 161.892C73.804 162.204 72.82 162.36 71.764 162.36ZM63.124 145.26H76.012L75.976 148.464H63.052L63.124 145.26ZM85.804 151.848L84.328 153.792V162H80.332V139.572H84.292H84.616V139.896C84.496 140.04 84.412 140.196 84.364 140.364C84.34 140.532 84.328 140.82 84.328 141.228V148.752L91.78 139.356C91.972 139.404 92.176 139.44 92.392 139.464C92.632 139.488 92.872 139.512 93.112 139.536C93.376 139.56 93.616 139.572 93.832 139.572C94.072 139.572 94.264 139.572 94.408 139.572H96.28L88.684 148.968L96.712 161.964L92.068 162.144L85.804 151.848Z" fill="black"/>
<path d="M453.125 154.656C452.708 153.906 452.417 153.151 452.25 152.391C452.083 151.63 452 150.854 452 150.063C452 147.333 452.984 144.984 454.953 143.016C456.922 141.047 459.271 140.063 462 140.063H463.344L460.844 137.562L462.063 136.344L466.719 141L462.063 145.656L460.813 144.406L463.281 141.938H462C459.771 141.938 457.859 142.734 456.266 144.328C454.672 145.922 453.875 147.833 453.875 150.063C453.875 150.667 453.932 151.24 454.047 151.781C454.161 152.323 454.302 152.833 454.469 153.312L453.125 154.656ZM461.875 163.75L457.219 159.094L461.875 154.438L463.094 155.656L460.594 158.156H462C464.229 158.156 466.141 157.359 467.734 155.766C469.328 154.172 470.125 152.26 470.125 150.031C470.125 149.427 470.073 148.854 469.969 148.312C469.865 147.771 469.708 147.26 469.5 146.781L470.844 145.438C471.26 146.188 471.557 146.943 471.734 147.703C471.911 148.464 472 149.24 472 150.031C472 152.76 471.016 155.109 469.047 157.078C467.078 159.047 464.729 160.031 462 160.031H460.594L463.094 162.531L461.875 163.75Z" fill="#8A8A8A"/>
<path d="M419.625 162.469C419.125 162.469 418.688 162.281 418.313 161.906C417.938 161.531 417.75 161.094 417.75 160.594V141.75H419.625V160.594H434.438V162.469H419.625ZM423.375 158.719C422.875 158.719 422.437 158.531 422.062 158.156C421.687 157.781 421.5 157.344 421.5 156.844V139.344C421.5 138.844 421.687 138.406 422.062 138.031C422.437 137.656 422.875 137.469 423.375 137.469H437.125C437.625 137.469 438.062 137.656 438.437 138.031C438.812 138.406 439 138.844 439 139.344V156.844C439 157.344 438.812 157.781 438.437 158.156C438.062 158.531 437.625 158.719 437.125 158.719H423.375ZM423.375 156.844H437.125V139.344H423.375V156.844Z" fill="#8A8A8A"/>
<path d="M35.8643 223.618C35.8643 226.832 34.2773 228.444 31.1035 228.452C27.9297 228.452 26.3428 226.84 26.3428 223.618V208.432C26.3428 205.218 27.9297 203.61 31.1035 203.61C34.2773 203.61 35.8643 205.218 35.8643 208.432V211.398H33.0444V208.432C33.0444 207.073 32.4015 206.389 31.1157 206.381H31.0913C29.8055 206.381 29.1626 207.065 29.1626 208.432V223.618C29.1626 224.985 29.8096 225.668 31.1035 225.668C32.3975 225.668 33.0444 224.985 33.0444 223.618V220.651H35.8643V223.618ZM48.0713 224.191C48.0713 227.023 46.4844 228.444 43.3105 228.452C40.1367 228.452 38.5498 227.032 38.5498 224.191V206.931H41.3696V224.191C41.3696 225.396 42.0166 225.998 43.3105 225.998C44.6045 225.998 45.2515 225.396 45.2515 224.191V206.931H48.0713V224.191ZM50.8789 210.837C50.8789 208.005 52.4658 206.589 55.6396 206.589C58.8135 206.589 60.4004 208.005 60.4004 210.837V213.449H57.5806V210.837C57.5806 209.632 56.9377 209.03 55.6519 209.03H55.6274C54.3416 209.03 53.6987 209.632 53.6987 210.837V212.814C53.6987 213.905 54.8706 215.187 57.2144 216.66C59.3384 217.994 60.4004 219.585 60.4004 221.433V224.191C60.4004 227.032 58.8175 228.452 55.6519 228.452C52.4699 228.444 50.8789 227.023 50.8789 224.191V221.591H53.6987V224.191C53.6987 225.404 54.3498 226.01 55.6519 226.01C56.9377 226.01 57.5806 225.404 57.5806 224.191V221.701C57.5806 220.537 56.4087 219.215 54.0649 217.734C51.9409 216.399 50.8789 214.784 50.8789 212.888V210.837ZM71.875 206.882V209.323H68.5303V228.049H65.7104V209.323H62.3535V206.882H71.875ZM83.3496 224.191C83.3496 227.023 81.7627 228.444 78.5889 228.452C75.415 228.452 73.8281 227.032 73.8281 224.191V210.837C73.8281 208.005 75.415 206.589 78.5889 206.589C81.7627 206.589 83.3496 208.005 83.3496 210.837V224.191ZM80.5298 210.837C80.5298 209.632 79.8869 209.03 78.6011 209.03H78.5767C77.2909 209.03 76.6479 209.632 76.6479 210.837V224.191C76.6479 225.404 77.2949 226.01 78.5889 226.01C79.8828 226.01 80.5298 225.404 80.5298 224.191V210.837ZM93.689 222.897L98.1567 206.882H101.05V228.049H98.3765V213.059L94.6411 228.049H92.8223L88.9893 213.144V228.049H86.2793V206.882H89.1846L93.689 222.897Z" fill="black"/>
<path d="M25.8057 240.259C25.8057 238.331 26.7578 237.366 28.6621 237.366C30.5664 237.366 31.5186 238.331 31.5186 240.259V242.039H29.8267V240.259C29.8267 239.444 29.4409 239.034 28.6694 239.029H28.6548C27.8833 239.029 27.4976 239.439 27.4976 240.259V241.614C27.4976 242.352 28.2007 243.223 29.6069 244.229C30.8813 245.142 31.5186 246.229 31.5186 247.488V249.371C31.5186 251.304 30.5688 252.271 28.6694 252.271C26.7603 252.266 25.8057 251.299 25.8057 249.371V247.591H27.4976V249.371C27.4976 250.191 27.8882 250.601 28.6694 250.601C29.4409 250.601 29.8267 250.191 29.8267 249.371V247.671C29.8267 246.875 29.1235 245.975 27.7173 244.969C26.4429 244.056 25.8057 242.952 25.8057 241.658V240.259ZM33.313 239.329H35.0049V252.029H33.313V239.329ZM41.4648 240.237L38.4839 250.572H41.5967V252.029H36.5869V251.121L39.5679 240.794H36.6821V239.329H41.4648V240.237ZM43.1348 239.329H48.2471V240.794H44.8267V244.947H47.771V246.419H44.8267V250.572H48.2471V252.029H43.1348V239.329ZM49.7119 242.317H51.7188V244.324H49.7119V242.317ZM49.7119 249.935H51.7188V251.949H49.7119V249.935ZM62.749 237.601V246.719H63.5767V248.382H62.749V252.029H61.0571V248.382H56.6992V246.771L60.3833 237.601H62.749ZM58.252 246.719H61.0571V239.607L58.252 246.719Z" fill="black" fill-opacity="0.5"/>
<rect x="25" y="269" width="295" height="10" rx="5" fill="#D9D9D9"/>
<circle cx="32.5" cy="273.5" r="7.5" fill="#9575DE"/>
<rect x="358" y="228" width="20" height="20" fill="#2D033B"/>
<path fill-rule="evenodd" clip-rule="evenodd" d="M363.828 241.828L361 239L363.828 236.172L366.657 239L372.314 233.343L375.142 236.172L366.657 244.657L365.243 243.243L363.828 241.828Z" fill="#FF9109"/>
<path d="M394.519 242.371C394.519 244.299 393.566 245.266 391.662 245.271C389.758 245.271 388.806 244.304 388.806 242.371V233.259C388.806 231.331 389.758 230.366 391.662 230.366C393.566 230.366 394.519 231.331 394.519 233.259V235.039H392.827V233.259C392.827 232.444 392.441 232.034 391.669 232.029H391.655C390.883 232.029 390.498 232.439 390.498 233.259V242.371C390.498 243.191 390.886 243.601 391.662 243.601C392.438 243.601 392.827 243.191 392.827 242.371V240.591H394.519V242.371ZM401.726 240.613L402.399 245.029H400.678L400.261 242.253H397.675L397.25 245.029H395.544L396.203 240.627L397.69 232.329H400.246L401.726 240.613ZM400.041 240.781L398.964 233.604L397.888 240.781H400.041ZM403.645 232.329H406.545C408.298 232.334 409.174 233.186 409.174 234.885V236.855C409.174 238.11 408.542 238.918 407.277 239.28C406.97 239.373 406.516 239.419 405.915 239.419H405.336V245.029H403.645V232.329ZM405.336 233.794V237.947H406.054C406.381 237.947 406.616 237.925 406.757 237.881C407.241 237.705 407.482 237.363 407.482 236.855V234.885C407.482 234.158 407.097 233.794 406.325 233.794H405.336ZM410.756 232.329H412.448V245.029H410.756V232.329ZM419.523 232.329V233.794H417.517V245.029H415.825V233.794H413.811V232.329H419.523ZM426.364 240.613L427.038 245.029H425.317L424.899 242.253H422.314L421.889 245.029H420.183L420.842 240.627L422.329 232.329H424.885L426.364 240.613ZM424.68 240.781L423.603 233.604L422.526 240.781H424.68ZM428.283 245.029V232.329H429.975V243.572H433.396V245.029H428.283ZM438.361 245.029V230.601H440.053V243.367H443.474V245.029H438.361ZM444.719 232.329H449.831V233.794H446.411V237.947H449.355V239.419H446.411V243.572H449.831V245.029H444.719V232.329ZM456.496 232.329V233.794H454.489V245.029H452.797V233.794H450.783V232.329H456.496ZM462.941 232.329V233.794H460.935V245.029H459.243V233.794H457.229V232.329H462.941ZM464.26 232.329H469.372V233.794H465.952V237.947H468.896V239.419H465.952V243.572H469.372V245.029H464.26V232.329ZM470.91 232.329H473.811C475.563 232.334 476.44 233.186 476.44 234.885V236.855C476.44 237.915 475.856 238.635 474.689 239.016L477.07 245.029H475.202L473.261 239.25L472.602 239.331V245.029H470.91V232.329ZM472.602 233.794V237.947H473.32C473.647 237.947 473.881 237.925 474.023 237.881C474.506 237.705 474.748 237.363 474.748 236.855V234.885C474.748 234.158 474.362 233.794 473.591 233.794H472.602ZM478.103 234.702C478.103 233.003 479.055 232.153 480.959 232.153C482.863 232.153 483.815 233.003 483.815 234.702V236.27H482.124V234.702C482.124 233.979 481.738 233.618 480.966 233.618H480.952C480.18 233.618 479.794 233.979 479.794 234.702V235.889C479.794 236.543 480.498 237.312 481.904 238.196C483.178 238.997 483.815 239.951 483.815 241.06V242.715C483.815 244.419 482.866 245.271 480.966 245.271C479.057 245.266 478.103 244.414 478.103 242.715V241.155H479.794V242.715C479.794 243.442 480.185 243.806 480.966 243.806C481.738 243.806 482.124 243.442 482.124 242.715V241.221C482.124 240.522 481.42 239.729 480.014 238.84C478.74 238.04 478.103 237.07 478.103 235.933V234.702Z" fill="black" fill-opacity="0.65"/>
<rect x="358" y="253" width="20" height="20" fill="#2D033B"/>
<path fill-rule="evenodd" clip-rule="evenodd" d="M363.828 261.172L361 264L363.828 266.828L365.243 268.243L366.657 269.657L375.142 261.172L372.314 258.343L366.657 264L363.828 261.172Z" fill="#FF9109"/>
<path d="M388.952 255.601H390.688L393.134 265.964V255.63L394.665 255.608V270.029H392.929L390.563 259.922V270.029H388.952V255.601ZM402.209 267.715C402.209 269.414 401.257 270.266 399.353 270.271C397.448 270.271 396.496 269.419 396.496 267.715V257.358H398.188V267.715C398.188 268.438 398.576 268.799 399.353 268.799C400.129 268.799 400.517 268.438 400.517 267.715V257.358H402.209V267.715ZM408.486 266.938L411.167 257.329H412.902V270.029H411.298V261.035L409.057 270.029H407.966L405.666 261.086V270.029H404.04V257.329H405.783L408.486 266.938ZM414.807 257.329H417.89C419.643 257.334 420.52 258.186 420.52 259.885V261.855C420.52 262.637 420.039 263.245 419.077 263.679C420.039 264.119 420.52 264.727 420.52 265.503V267.48C420.52 269.175 419.594 270.024 417.744 270.029H414.807V257.329ZM416.499 258.794V262.947H417.399C417.727 262.947 417.961 262.925 418.103 262.881C418.586 262.705 418.828 262.363 418.828 261.855V259.885C418.828 259.158 418.442 258.794 417.67 258.794H416.499ZM416.499 264.419V268.572H417.67C418.442 268.572 418.828 268.208 418.828 267.48V265.503C418.828 264.99 418.586 264.653 418.103 264.492C417.966 264.443 417.731 264.419 417.399 264.419H416.499ZM422.204 257.329H427.316V258.794H423.896V262.947H426.84V264.419H423.896V268.572H427.316V270.029H422.204V257.329ZM428.854 257.329H431.755C433.508 257.334 434.384 258.186 434.384 259.885V261.855C434.384 262.915 433.801 263.635 432.634 264.016L435.014 270.029H433.146L431.206 264.25L430.546 264.331V270.029H428.854V257.329ZM430.546 258.794V262.947H431.264C431.591 262.947 431.826 262.925 431.967 262.881C432.451 262.705 432.692 262.363 432.692 261.855V259.885C432.692 259.158 432.307 258.794 431.535 258.794H430.546ZM436.047 259.702C436.047 258.003 436.999 257.153 438.903 257.153C440.808 257.153 441.76 258.003 441.76 259.702V261.27H440.068V259.702C440.068 258.979 439.682 258.618 438.911 258.618H438.896C438.125 258.618 437.739 258.979 437.739 259.702V260.889C437.739 261.543 438.442 262.312 439.848 263.196C441.123 263.997 441.76 264.951 441.76 266.06V267.715C441.76 269.419 440.81 270.271 438.911 270.271C437.001 270.266 436.047 269.414 436.047 267.715V266.155H437.739V267.715C437.739 268.442 438.129 268.806 438.911 268.806C439.682 268.806 440.068 268.442 440.068 267.715V266.221C440.068 265.522 439.365 264.729 437.958 263.84C436.684 263.04 436.047 262.07 436.047 260.933V259.702Z" fill="black" fill-opacity="0.65"/>
<rect x="358" y="278" width="20" height="20" fill="#2D033B"/>
<path fill-rule="evenodd" clip-rule="evenodd" d="M363.828 286.172L361 289L363.828 291.828L365.243 293.243L366.657 294.657L375.142 286.172L372.314 283.343L366.657 289L363.828 286.172Z" fill="#FF9109"/>
<path d="M388.806 283.259C388.806 281.331 389.758 280.366 391.662 280.366C393.566 280.366 394.519 281.331 394.519 283.259V285.039H392.827V283.259C392.827 282.444 392.441 282.034 391.669 282.029H391.655C390.883 282.029 390.498 282.439 390.498 283.259V284.614C390.498 285.352 391.201 286.223 392.607 287.229C393.881 288.142 394.519 289.229 394.519 290.488V292.371C394.519 294.304 393.569 295.271 391.669 295.271C389.76 295.266 388.806 294.299 388.806 292.371V290.591H390.498V292.371C390.498 293.191 390.888 293.601 391.669 293.601C392.441 293.601 392.827 293.191 392.827 292.371V290.671C392.827 289.875 392.124 288.975 390.717 287.969C389.443 287.056 388.806 285.952 388.806 284.658V283.259ZM397.404 282.329L399.045 288.057L400.693 282.329H402.487L399.895 289.69V295.029H398.203V289.69L395.617 282.329H397.404ZM408.178 291.938L410.859 282.329H412.595V295.029H410.991V286.035L408.75 295.029H407.658L405.358 286.086V295.029H403.732V282.329H405.476L408.178 291.938ZM414.499 282.329H417.583C419.335 282.334 420.212 283.186 420.212 284.885V286.855C420.212 287.637 419.731 288.245 418.769 288.679C419.731 289.119 420.212 289.727 420.212 290.503V292.48C420.212 294.175 419.287 295.024 417.436 295.029H414.499V282.329ZM416.191 283.794V287.947H417.092C417.419 287.947 417.653 287.925 417.795 287.881C418.278 287.705 418.52 287.363 418.52 286.855V284.885C418.52 284.158 418.134 283.794 417.363 283.794H416.191ZM416.191 289.419V293.572H417.363C418.134 293.572 418.52 293.208 418.52 292.48V290.503C418.52 289.99 418.278 289.653 417.795 289.492C417.658 289.443 417.424 289.419 417.092 289.419H416.191ZM427.463 292.715C427.463 294.414 426.511 295.266 424.606 295.271C422.702 295.271 421.75 294.419 421.75 292.715V284.702C421.75 283.003 422.702 282.153 424.606 282.153C426.511 282.153 427.463 283.003 427.463 284.702V292.715ZM425.771 284.702C425.771 283.979 425.385 283.618 424.614 283.618H424.599C423.828 283.618 423.442 283.979 423.442 284.702V292.715C423.442 293.442 423.83 293.806 424.606 293.806C425.383 293.806 425.771 293.442 425.771 292.715V284.702ZM429.221 295.029V282.329H430.913V293.572H434.333V295.029H429.221ZM435.432 284.702C435.432 283.003 436.384 282.153 438.288 282.153C440.192 282.153 441.145 283.003 441.145 284.702V286.27H439.453V284.702C439.453 283.979 439.067 283.618 438.295 283.618H438.281C437.509 283.618 437.124 283.979 437.124 284.702V285.889C437.124 286.543 437.827 287.312 439.233 288.196C440.507 288.997 441.145 289.951 441.145 291.06V292.715C441.145 294.419 440.195 295.271 438.295 295.271C436.386 295.266 435.432 294.414 435.432 292.715V291.155H437.124V292.715C437.124 293.442 437.514 293.806 438.295 293.806C439.067 293.806 439.453 293.442 439.453 292.715V291.221C439.453 290.522 438.75 289.729 437.343 288.84C436.069 288.04 435.432 287.07 435.432 285.933V284.702Z" fill="black" fill-opacity="0.65"/>
</g>
<defs>
<clipPath id="clip0_37_8">
<rect width="500" height="300" rx="25" fill="white"/>
</clipPath>
</defs>
</svg>
